<?xml version="1.0" encoding="UTF-8"?>
<svg width="68px" height="64px" viewBox="0 0 68 64" version="1.1" xmlns="http://www.w3.org/2000/svg" xmlns:xlink="http://www.w3.org/1999/xlink">
    <!-- Generator: Sketch 50.2 (55047) - http://www.bohemiancoding.com/sketch -->
    <title>Fill 98</title>
    <desc>Created with Sketch.</desc>
    <defs></defs>
    <g id="0.0-Visuals---Current" stroke="none" stroke-width="1" fill="none" fill-rule="evenodd" fill-opacity="0.95">
        <g id="1.1-Visuals-R3" transform="translate(-747.000000, -748.000000)" fill="#CCCCCC">
            <g id="Group-2" transform="translate(681.000000, 488.000000)">
                <path d="M130.768164,296.292569 C133.317259,290.416272 134.2772,284.990785 133.590351,279.810943 C133.466156,279.572845 133.400284,279.302496 133.418811,279.017739 C133.422928,278.952553 133.431848,278.892171 133.435278,278.826986 C132.380647,272.769542 129.052072,267.029106 123.344571,261.272201 C123.051579,261.27426 122.763391,261.277004 122.462166,261.277004 C118.558587,261.277004 114.578843,261.138399 110.730843,261.002539 C106.882157,260.868738 103.247554,260.741797 99.678822,260.741797 C88.4943712,260.741797 77.4231373,261.888375 72.1890888,270.203294 C64.7503997,282.02519 66.3395524,294.051562 67.7413826,304.661009 C68.0453527,306.963084 68.3328548,309.136161 68.5284112,311.268755 C69.2234939,318.871437 70.4057521,323.935317 73.9099846,323.935317 C76.7479532,323.935317 81.1455695,321.1989 86.9779518,315.801545 C87.1460617,315.645786 87.3464211,315.531197 87.5659932,315.464639 C87.9173084,315.35897 122.720849,304.762561 130.768164,296.292569" id="Fill-98"></path>
            </g>
        </g>
    </g>
</svg>