<svg width="168" height="168" viewBox="0 0 168 168" fill="none" xmlns="http://www.w3.org/2000/svg">
    <path fill-rule="evenodd" clip-rule="evenodd"
          d="M141.867 58.8735H106.955V70.6332H110.459V95.8563C109.659 96.46 107.717 97.3966 104.844 97.3966C102.367 97.3966 100.633 96.7082 99.6765 96.1288V65.5084C99.6765 49.7089 84.9553 37.333 66.1647 37.333C47.3707 37.333 32.6495 49.7089 32.6495 65.5084V93.4465H28V105.205H65.4511V93.4465H60.5513V66.5431C61.3486 65.9385 63.2933 65.0028 66.1647 65.0028C68.6437 65.0028 70.3779 65.6929 71.3341 66.2731V96.8901C71.3341 112.69 86.0528 125.066 104.844 125.066C123.637 125.066 138.361 112.69 138.361 96.8901V70.6332H141.867V58.8735"
          fill="#DAF0F6"/>
    <path fill-rule="evenodd" clip-rule="evenodd"
          d="M74.6667 51.6712L66.2599 59.8272C65.8546 60.2219 65.3219 60.4184 64.7901 60.4184C64.2583 60.4184 63.7265 60.2219 63.3211 59.8289C62.5087 59.0421 62.5078 57.7658 63.3202 56.979L66.7069 53.6924H64.2851C54.7264 53.6924 49.462 58.7961 49.462 68.0638V74.5044C49.462 75.617 48.53 76.5196 47.3824 76.5196C46.2347 76.5196 45.3036 75.617 45.3036 74.5044V68.0638C45.3036 56.5415 52.3991 49.6618 64.2851 49.6618H66.7138L63.3211 46.3744C62.5087 45.5876 62.5078 44.3112 63.3202 43.5244C64.1318 42.7368 65.4492 42.7368 66.2591 43.5236L74.6667 51.6712ZM70.1775 122.903H41.49V84.4498H55.2331V94.9057C55.2331 97.1318 57.0935 98.9354 59.3906 98.9354H70.1775V122.903ZM59.3906 84.4498L70.1749 94.9057H59.3906V84.4498ZM74.3263 94.8285C74.3168 94.3507 74.2206 93.8804 74.0405 93.4354C74.0162 93.3766 73.9885 93.3204 73.9617 93.2633C73.8846 93.0945 73.7945 92.9324 73.6932 92.7754C73.6594 92.7225 73.6282 92.6704 73.5918 92.6192C73.4506 92.421 73.2965 92.2296 73.1163 92.0549L64.4861 83.6907L62.3302 81.5998C62.1336 81.4092 61.9188 81.2413 61.6919 81.0935C61.5836 81.0238 61.465 80.9768 61.3506 80.918C61.2259 80.8525 61.1064 80.7769 60.9747 80.7249C60.8188 80.6619 60.6543 80.6258 60.4923 80.5821C60.3944 80.5561 60.3 80.5166 60.1995 80.4973C59.9328 80.4461 59.6625 80.4192 59.3897 80.4192C59.388 80.4192 59.3871 80.42 59.3854 80.42H41.49C39.1938 80.42 37.3334 82.2246 37.3334 84.4498V122.903C37.3334 125.13 39.1938 126.934 41.49 126.934H70.1775C72.4736 126.934 74.3341 125.13 74.3341 122.903V94.9082C74.3341 94.8805 74.3272 94.8553 74.3263 94.8285V94.8285Z"
          fill="#0C87C6"/>
</svg>
