<svg width="610px" height="732px" viewBox="0 0 610 731" version="1.1" xmlns="http://www.w3.org/2000/svg">
    <defs>
        <polygon id="polygonIconPortals" points="0.0003 0.636 54.779 0.636 54.779 61 0.0003 61"></polygon>
        <polygon id="polygonIconMatrixService" points="0 0.224093023 54.7742442 0.224093023 54.7742442 54.9998295 0 54.9998295"></polygon>
        <polygon id="polygonIconCLI" points="0 0.219 71.0586 0.219 71.0586 57.9999 0 57.9999"></polygon>
        <polygon id="polygonIconBrowser" points="0 0.058 59.461 0.058 59.461 58.9999 0 58.9999"></polygon>
        <polygon id="polygonIconPipelines" points="0 0.55 66.3219 0.55 66.3219 59 0 59"></polygon>
        <polygon id="polygonIconStorage" points="0.0003 0.0714 68.5953 0.0714 68.5953 55 0.0003 55"></polygon>
        <polygon id="polygonIconValidation" points="0.0004 0.017 50.459 0.017 50.459 56 0.0004 56"></polygon>
        <filter x="-3.5%" y="-7.6%" width="107.5%" height="116.3%" filterUnits="objectBoundingBox" id="shadowAnalysisPortals">
            <feOffset dx="0" dy="0" in="SourceAlpha" result="shadowOffsetOuter1"></feOffset>
            <feGaussianBlur stdDeviation="1.5" in="shadowOffsetOuter1" result="shadowBlurOuter1"></feGaussianBlur>
            <feColorMatrix values="0 0 0 0 0   0 0 0 0 0   0 0 0 0 0  0 0 0 0.3 0" type="matrix" in="shadowBlurOuter1" result="shadowMatrixOuter1"></feColorMatrix>
            <feMerge>
                <feMergeNode in="shadowMatrixOuter1"></feMergeNode>
                <feMergeNode in="SourceGraphic"></feMergeNode>
            </feMerge>
        </filter>
        <filter x="-4.0%" y="-7.6%" width="107.5%" height="116.3%" filterUnits="objectBoundingBox" id="shadowMatrixService">
            <feOffset dx="0" dy="0" in="SourceAlpha" result="shadowOffsetOuter1"></feOffset>
            <feGaussianBlur stdDeviation="1.5" in="shadowOffsetOuter1" result="shadowBlurOuter1"></feGaussianBlur>
            <feColorMatrix values="0 0 0 0 0   0 0 0 0 0   0 0 0 0 0  0 0 0 0.3 0" type="matrix" in="shadowBlurOuter1" result="shadowMatrixOuter1"></feColorMatrix>
            <feMerge>
                <feMergeNode in="shadowMatrixOuter1"></feMergeNode>
                <feMergeNode in="SourceGraphic"></feMergeNode>
            </feMerge>
        </filter>
        <filter x="-4.0%" y="-7.6%" width="107.5%" height="116.3%" filterUnits="objectBoundingBox" id="shadowCLIDataAccess">
            <feOffset dx="0" dy="0" in="SourceAlpha" result="shadowOffsetOuter1"></feOffset>
            <feGaussianBlur stdDeviation="1.5" in="shadowOffsetOuter1" result="shadowBlurOuter1"></feGaussianBlur>
            <feColorMatrix values="0 0 0 0 0   0 0 0 0 0   0 0 0 0 0  0 0 0 0.3 0" type="matrix" in="shadowBlurOuter1" result="shadowMatrixOuter1"></feColorMatrix>
            <feMerge>
                <feMergeNode in="shadowMatrixOuter1"></feMergeNode>
                <feMergeNode in="SourceGraphic"></feMergeNode>
            </feMerge>
        </filter>
        <filter x="-4.0%" y="-7.6%" width="107.5%" height="116.3%" filterUnits="objectBoundingBox" id="shadowHCADataStorage">
            <feOffset dx="0" dy="0" in="SourceAlpha" result="shadowOffsetOuter1"></feOffset>
            <feGaussianBlur stdDeviation="1.5" in="shadowOffsetOuter1" result="shadowBlurOuter1"></feGaussianBlur>
            <feColorMatrix values="0 0 0 0 0   0 0 0 0 0   0 0 0 0 0  0 0 0 0.3 0" type="matrix" in="shadowBlurOuter1" result="shadowMatrixOuter1"></feColorMatrix>
            <feMerge>
                <feMergeNode in="shadowMatrixOuter1"></feMergeNode>
                <feMergeNode in="SourceGraphic"></feMergeNode>
            </feMerge>
        </filter>
        <filter x="-3.3%" y="-8.3%" width="106.2%" height="117.9%" filterUnits="objectBoundingBox" id="shadowPipelines">
            <feOffset dx="0" dy="0" in="SourceAlpha" result="shadowOffsetOuter1"></feOffset>
            <feGaussianBlur stdDeviation="1.5" in="shadowOffsetOuter1" result="shadowBlurOuter1"></feGaussianBlur>
            <feColorMatrix values="0 0 0 0 0   0 0 0 0 0   0 0 0 0 0  0 0 0 0.3 0" type="matrix" in="shadowBlurOuter1" result="shadowMatrixOuter1"></feColorMatrix>
            <feMerge>
                <feMergeNode in="shadowMatrixOuter1"></feMergeNode>
                <feMergeNode in="SourceGraphic"></feMergeNode>
            </feMerge>
        </filter>
        <filter x="-3.7%" y="-4.5%" width="106.9%" height="109.7%" filterUnits="objectBoundingBox" id="shadowStorage">
            <feOffset dx="0" dy="0" in="SourceAlpha" result="shadowOffsetOuter1"></feOffset>
            <feGaussianBlur stdDeviation="1.5" in="shadowOffsetOuter1" result="shadowBlurOuter1"></feGaussianBlur>
            <feColorMatrix values="0 0 0 0 0   0 0 0 0 0   0 0 0 0 0  0 0 0 0.3 0" type="matrix" in="shadowBlurOuter1" result="shadowMatrixOuter1"></feColorMatrix>
            <feMerge>
                <feMergeNode in="shadowMatrixOuter1"></feMergeNode>
                <feMergeNode in="SourceGraphic"></feMergeNode>
            </feMerge>
        </filter>
        <filter x="-3.3%" y="-8.3%" width="106.2%" height="117.9%" filterUnits="objectBoundingBox" id="shadowValidation">
            <feOffset dx="0" dy="0" in="SourceAlpha" result="shadowOffsetOuter1"></feOffset>
            <feGaussianBlur stdDeviation="1.5" in="shadowOffsetOuter1" result="shadowBlurOuter1"></feGaussianBlur>
            <feColorMatrix values="0 0 0 0 0   0 0 0 0 0   0 0 0 0 0  0 0 0 0.3 0" type="matrix" in="shadowBlurOuter1" result="shadowMatrixOuter1"></feColorMatrix>
            <feMerge>
                <feMergeNode in="shadowMatrixOuter1"></feMergeNode>
                <feMergeNode in="SourceGraphic"></feMergeNode>
            </feMerge>
        </filter>
        <filter x="-5.9%" y="-21.7%" width="111.8%" height="143.3%" filterUnits="objectBoundingBox" id="shadowDataCurator">
            <feOffset dx="0" dy="0" in="SourceAlpha" result="shadowOffsetOuter1"></feOffset>
            <feGaussianBlur stdDeviation="1.5" in="shadowOffsetOuter1" result="shadowBlurOuter1"></feGaussianBlur>
            <feColorMatrix values="0 0 0 0 0   0 0 0 0 0   0 0 0 0 0  0 0 0 0.3 0" type="matrix" in="shadowBlurOuter1" result="shadowMatrixOuter1"></feColorMatrix>
            <feMerge>
                <feMergeNode in="shadowMatrixOuter1"></feMergeNode>
                <feMergeNode in="SourceGraphic"></feMergeNode>
            </feMerge>
        </filter>
        <filter x="-3.3%" y="-8.3%" width="106.2%" height="117.9%" filterUnits="objectBoundingBox" id="shadowResearchData">
            <feOffset dx="0" dy="0" in="SourceAlpha" result="shadowOffsetOuter1"></feOffset>
            <feGaussianBlur stdDeviation="1.5" in="shadowOffsetOuter1" result="shadowBlurOuter1"></feGaussianBlur>
            <feColorMatrix values="0 0 0 0 0   0 0 0 0 0   0 0 0 0 0  0 0 0 0.3 0" type="matrix" in="shadowBlurOuter1" result="shadowMatrixOuter1"></feColorMatrix>
            <feMerge>
                <feMergeNode in="shadowMatrixOuter1"></feMergeNode>
                <feMergeNode in="SourceGraphic"></feMergeNode>
            </feMerge>
        </filter>
    </defs>
    <g id="dataLifecycleDiagram" stroke="none" strokeWidth="1" fill="none" fillRule="evenodd">
        <g id="background" transform="translate(0.000000, 128.000000)">
            <rect id="containerBackground" fill="#F1F1F2" fillRule="nonzero" x="0" y="0" width="610" height="416" rx="5"></rect>
            <text id="textBackend" fontFamily="din-2014, sans-serif" fontSize="21" fontWeight="500" linespacing="21" letterSpacing="0.21" fill="#898B8E">
                <tspan x="514" y="396">Backend</tspan>
            </text>
        </g>
        <path d="M115.3236,510.259356 L115.3236,544.279768 L115.316,544.279 L115.316,568.294 L475.057239,568.294177 C511.893226,568.294177 541.9295,597.989422 542.526542,634.719537 L542.535599,635.834701 L542.535599,641.834301 L550.753964,641.834301 C552.033887,642.416678 552.327761,643.060931 551.635587,643.767061 L551.539712,643.859516 L530.62242,663 L517.921493,663 L497.004201,643.859516 C495.828144,642.78297 496.11963,641.895295 497.63033,641.837313 L497.790948,641.834301 L507.54682,641.834301 L507.54682,635.834701 C507.54682,618.082259 493.262523,603.607279 475.593683,603.319554 L475.057239,603.315189 L393.906263,603.315189 C390.45237,599.329798 384.284348,595.044227 385.011115,595.845707 C389.45569,600.745647 393.266468,606.128877 396.477438,611.971383 C399.194498,619.138856 400.733605,626.880923 400.836519,634.967027 L400.842038,635.834701 L400.842038,641.834301 L409.829156,641.834301 C411.423645,641.834301 411.807482,642.686091 410.731437,643.748849 L410.614904,643.859516 L389.697612,663 L376.996685,663 L356.079393,643.859516 C354.902371,642.78297 355.193824,641.895295 356.704523,641.837313 L356.865141,641.834301 L365.853259,641.834301 L365.853259,635.834701 C365.853259,618.082259 351.567982,603.607279 333.900092,603.319554 L333.363678,603.315189 L252.951465,603.315189 C249.497572,599.329798 243.32955,595.044227 244.056317,595.845707 C248.500892,600.745647 252.31167,606.128877 255.52264,611.971383 C258.2397,619.138856 259.778807,626.880923 259.881721,634.967027 L259.887241,635.834701 L259.887241,641.834301 L268.874359,641.834301 C270.468847,641.834301 270.852684,642.686091 269.776639,643.748849 L269.660107,643.859516 L248.742814,663 L236.041887,663 L215.124595,643.859516 C213.947573,642.78297 214.239026,641.895295 215.749725,641.837313 L215.910343,641.834301 L224.898461,641.834301 L224.898461,635.834701 C224.898461,618.082259 210.613184,603.607279 192.945295,603.319554 L192.40888,603.315189 L115.316,603.315 L115.316531,642.564001 L124.461599,641.271282 C126.056087,641.271282 126.439924,642.123072 125.36388,643.18583 L125.247347,643.296497 L104.330055,662.436981 L91.6291275,662.436981 L70.7118354,643.296497 C69.5357792,642.219951 69.8272646,641.332276 71.3379648,641.274294 L71.4985831,641.271282 L80.3277517,641.271282 L80.3277517,544.271706 L80.334,544.271 L80.3348204,510.259356 L115.3236,510.259356 Z M449.224523,375.178307 L470.141815,394.318791 C471.318838,395.395337 471.02645,396.283012 469.516592,396.340994 L469.356067,396.344006 L460.098036,396.344006 C456.493612,443.591395 417.29063,481.029938 369.353877,481.773984 L367.898603,481.785271 L185.950951,481.785271 L185.950951,446.764259 L367.898603,446.764259 C396.893335,446.764259 420.924472,425.160674 424.812673,397.193431 L424.924316,396.344006 L416.392052,396.344006 C414.797563,396.344006 414.413726,395.492216 415.489771,394.429458 L415.606304,394.318791 L436.523596,375.178307 L449.224523,375.178307 Z M78.3354616,78 L78.3354616,128.030018 L78.3283929,128.030018 L78.3283929,364.412735 L82.3271106,364.412735 L82.3271106,128.030018 L82.3341792,128.030018 L82.3341792,78 L117.322959,78 L117.322959,128.030018 L117.31589,128.030018 L117.31589,364.412735 L120.939,364.412 L120.939514,312.640784 C120.939514,262.115519 161.596705,220.916601 211.885054,220.097675 L213.411859,220.085251 L368.600093,220.085251 C419.587742,220.085251 461.070439,261.605163 461.070439,312.640784 L461.070439,312.640784 L461.070439,314.673004 L426.081659,314.673004 L426.081659,312.640784 C426.081659,280.915749 400.295928,255.106264 368.600093,255.106264 L368.600093,255.106264 L213.411859,255.106264 C181.715024,255.106264 155.928293,280.915749 155.928293,312.640784 L155.928293,312.640784 L155.928293,365.201321 L164.448561,365.201321 C166.098032,365.201321 166.451919,366.112868 165.234309,367.227537 L165.234309,367.227537 L144.317017,386.368021 L131.61609,386.368021 L118.541,374.403 L106.329413,385.578435 L93.6284864,385.578435 L80.485,373.551 L67.3419161,385.578435 L54.6409891,385.578435 L33.723697,366.43795 C32.5476408,365.361404 32.8391262,364.47373 34.3498264,364.415747 L34.5104447,364.412735 L43.3396133,364.412735 L43.3396133,128.030018 L43.346682,128.030018 L43.346682,78 L78.3354616,78 Z" id="flowPaths" fill="#CEE2E9"></path>
        <g id="stateAnalysisPortals" transform="translate(401.000000, 644.000000)">
            <rect id="containerAnalysisPortals" stroke="#BCBEC0" strokeWidth="2" fillRule="nonzero" fill="transparent" x="57" y="18" width="130" height="68" rx="4"></rect>
            <path id="pathAnalysisPortals" fill="#0C87C6" fillRule="nonzero" stroke="#0C87C6" strokeWidth="0" d="M61,18 L183,18 C185.209139,18 187,19.790861 187,22 L187,86 L187,86 L57,86 L57,22 C57,19.790861 58.790861,18 61,18 Z"></path>
            <text id="textAnalysisPortals" fontFamily="din-2014, sans-serif" fontSize="21" fontWeight="500" linespacing="21" letterSpacing="0.21" fill="#0C87C6">
                <tspan x="83.5" y="51">Analysis</tspan>
                <tspan x="89.5779004" y="72">Portals</tspan>
            </text>
            <g id="icon/Portals">
                <rect id="boundsIcon" x="0" y="0" width="72" height="65"></rect>
                <g id="iconPath" strokeWidth="1" fillRule="evenodd" transform="translate(17.000000, 3.000000)">
                    <path d="M44.8008,44.5186 C47.5648,43.3366 49.5018,40.5986 49.5018,37.4016 C49.5018,33.1316 46.0348,29.6676 41.7638,29.6676 C37.4918,29.6676 34.0308,33.1316 34.0308,37.4016 C34.0308,40.5986 35.9688,43.3366 38.7288,44.5186 C35.4708,44.8976 33.3808,45.9146 32.0508,47.3816 L32.0528,47.3876 C30.3568,45.5766 27.7388,44.3106 23.6678,43.8386 C27.1778,42.3406 29.6408,38.8586 29.6408,34.8016 C29.6408,33.1836 29.2418,31.6606 28.5478,30.3146 C28.3908,30.0086 28.2178,29.7116 28.0318,29.4246 C30.4768,28.7156 34.3188,27.3646 35.9378,26.4236 L36.0308,26.8456 L39.8848,28.0976 L39.7518,23.5356 L39.7498,23.5346 C42.1098,21.1766 43.4938,18.3236 43.4938,15.2456 C43.4938,7.1626 33.9808,1.9996 22.2478,1.9996 C10.5098,1.9996 0.9998,7.1626 0.9998,15.2456 C0.9998,18.4516 2.5078,21.4136 5.0508,23.8246 C5.0508,23.8246 5.2248,29.2616 8.0708,29.6676 C8.7468,28.0746 8.9438,26.8456 8.9438,26.8456 L8.9828,26.6696 C10.0758,27.2726 11.2588,27.8016 12.5118,28.2486 C12.2778,28.5106 12.0548,28.7836 11.8488,29.0696 C10.6858,30.6846 9.9918,32.6606 9.9918,34.8016 C9.9918,38.8606 12.4468,42.3406 15.9588,43.8386 C5.6168,45.0416 4.5548,51.3116 4.5548,58.8836 C4.5548,58.8836 7.9588,60.3646 20.1508,60.3646 C32.3418,60.3646 35.0718,58.8836 35.0718,58.8836 C35.0718,58.0996 35.0558,57.3336 35.0248,56.5826 L35.0738,56.7376 C44.2368,58.0736 53.7798,56.3646 53.7798,56.3646 C53.7798,50.4016 52.9468,45.4616 44.8008,44.5186" id="Fill-1" fill="#FFFFFF"></path>
                    <g id="Group-5" transform="translate(0.000000, 0.364300)">
                        <mask id="mask-3" fill="white">
                            <use href="#polygonIconPortals"></use>
                        </mask>
                        <g id="Clip-4"></g>
                        <path d="M35.9883,55.4824 C35.7993,52.3664 35.1963,49.4124 33.4323,47.0914 C34.6843,46.0664 36.4623,45.4244 38.8433,45.1474 C39.2943,45.0954 39.6533,44.7474 39.7173,44.2974 C39.7833,43.8494 39.5393,43.4134 39.1223,43.2354 C36.6363,42.1704 35.0313,39.7384 35.0313,37.0374 C35.0313,33.3244 38.0513,30.3034 41.7633,30.3034 C45.4793,30.3034 48.5023,33.3244 48.5023,37.0374 C48.5023,39.7384 46.8943,42.1704 44.4073,43.2344 C43.9913,43.4134 43.7463,43.8494 43.8113,44.2974 C43.8763,44.7474 44.2353,45.0954 44.6853,45.1474 C51.8003,45.9714 52.7003,49.9434 52.7733,55.1464 C50.3683,55.5014 43.1103,56.3854 35.9883,55.4824 M20.1503,59.0004 C11.1123,59.0004 6.9773,58.1704 5.5573,57.7894 C5.6173,50.8754 6.6583,45.5634 16.0743,44.4674 C16.5253,44.4154 16.8843,44.0664 16.9483,43.6184 C17.0133,43.1694 16.7683,42.7324 16.3513,42.5544 C13.0953,41.1664 10.9923,37.9794 10.9923,34.4374 C10.9923,29.5724 14.9483,25.6144 19.8103,25.6144 C24.6793,25.6144 28.6403,29.5724 28.6403,34.4374 C28.6403,37.9774 26.5343,41.1644 23.2753,42.5544 C22.8583,42.7324 22.6133,43.1694 22.6783,43.6184 C22.7433,44.0674 23.1023,44.4164 23.5523,44.4674 C27.3383,44.9064 29.7553,46.0364 31.3133,47.6694 C31.3383,47.6974 31.3503,47.7324 31.3793,47.7584 C31.3903,47.7694 31.4063,47.7724 31.4193,47.7824 C33.6493,50.2144 34.0363,53.7344 34.0693,57.8204 C32.7963,58.1964 29.0343,59.0004 20.1503,59.0004 M9.4653,25.4304 C9.1893,25.2774 8.8583,25.2634 8.5713,25.3944 C8.2843,25.5244 8.0743,25.7814 8.0063,26.0884 L7.9563,26.3214 C7.9553,26.3304 7.8423,27.0004 7.5123,27.9654 C6.5093,27.0604 6.0923,24.6704 6.0503,23.4264 C6.0413,23.1644 5.9293,22.9154 5.7393,22.7344 C3.2933,20.4154 2.0003,17.6994 2.0003,14.8804 C2.0003,7.7854 10.5153,2.6354 22.2483,2.6354 C33.9793,2.6354 42.4943,7.7854 42.4943,14.8804 C42.4943,17.5854 41.3003,20.2064 39.0433,22.4624 C38.8363,22.6694 38.7323,22.9554 38.7543,23.2444 L38.8433,26.3434 L36.8723,25.7034 C36.7773,25.4544 36.5863,25.2524 36.3393,25.1434 C36.0493,25.0164 35.7123,25.0344 35.4353,25.1944 C34.0353,26.0084 30.8013,27.1744 28.4223,27.9014 C26.4423,25.3024 23.3243,23.6144 19.8103,23.6144 C16.8753,23.6144 14.2123,24.7944 12.2603,26.7004 C11.2913,26.3274 10.3463,25.9164 9.4653,25.4304 M32.0573,45.6454 C30.7023,44.4674 28.9103,43.5324 26.4993,42.9534 C29.0763,40.9334 30.6403,37.8164 30.6403,34.4374 C30.6403,32.7194 30.2273,31.0994 29.5113,29.6554 C31.5393,29.0164 33.9793,28.1344 35.5773,27.3724 C35.6243,27.3964 35.6723,27.4164 35.7223,27.4324 L39.4183,28.6324 C35.7403,29.6614 33.0313,33.0354 33.0313,37.0374 C33.0313,39.6174 34.1613,42.0074 36.0433,43.6394 C34.4223,44.0774 33.1103,44.7494 32.0573,45.6454 M47.4893,43.6394 C49.3723,42.0074 50.5023,39.6174 50.5023,37.0374 C50.5023,32.2214 46.5823,28.3034 41.7633,28.3034 C41.3823,28.3034 41.0093,28.3364 40.6403,28.3844 C40.8013,28.1974 40.8913,27.9564 40.8843,27.7044 L40.7633,23.5624 C43.2063,20.9924 44.4943,17.9994 44.4943,14.8804 C44.4943,6.6264 35.1383,0.6354 22.2483,0.6354 C9.3563,0.6354 0.0003,6.6264 0.0003,14.8804 C0.0003,18.1464 1.4073,21.2584 4.0743,23.9054 C4.1823,25.3834 4.7723,29.8434 7.9283,30.2934 C8.3803,30.3574 8.8133,30.1124 8.9913,29.6944 C9.3023,28.9614 9.5193,28.2974 9.6643,27.7824 C10.0643,27.9764 10.4893,28.1344 10.9053,28.3064 C9.7013,30.0514 8.9923,32.1624 8.9923,34.4374 C8.9923,37.8184 10.5543,40.9344 13.1303,42.9544 C4.3463,45.0674 3.5543,51.7664 3.5543,58.5194 C3.5543,58.9184 3.7913,59.2774 4.1563,59.4364 C4.3023,59.5004 7.8913,61.0004 20.1503,61.0004 C32.2463,61.0004 35.2473,59.5624 35.5493,59.3984 C35.8713,59.2234 36.0723,58.8864 36.0723,58.5194 C36.0723,58.1794 36.0683,57.8404 36.0633,57.5024 C38.3353,57.7754 40.5963,57.8874 42.7083,57.8874 C48.8133,57.8874 53.6733,57.0354 53.9563,56.9844 C54.4323,56.8994 54.7793,56.4844 54.7793,56.0004 C54.7793,50.6964 54.1673,45.4334 47.4893,43.6394 M11.0683,14.1024 C11.0683,15.0214 11.8103,15.7654 12.7283,15.7654 C13.6463,15.7654 14.3883,15.0214 14.3883,14.1024 C14.3883,13.1864 13.6463,12.4424 12.7283,12.4424 C11.8103,12.4424 11.0683,13.1864 11.0683,14.1024 M31.4963,9.4954 C31.4963,10.4144 32.2383,11.1584 33.1583,11.1584 C34.0763,11.1584 34.8163,10.4144 34.8163,9.4954 C34.8163,8.5774 34.0763,7.8364 33.1583,7.8364 C32.2383,7.8364 31.4963,8.5774 31.4963,9.4954 M19.7173,19.4844 C19.7173,20.4034 20.4613,21.1474 21.3793,21.1474 C22.2953,21.1474 23.0393,20.4034 23.0393,19.4844 C23.0393,18.5684 22.2953,17.8264 21.3793,17.8264 C20.4613,17.8264 19.7173,18.5684 19.7173,19.4844 M9.4613,18.0244 L10.9613,16.7544 C11.3823,16.3974 11.4343,15.7664 11.0773,15.3444 C10.7213,14.9244 10.0923,14.8704 9.6683,15.2284 L8.1683,16.4984 C7.7473,16.8554 7.6943,17.4864 8.0513,17.9084 C8.2493,18.1414 8.5313,18.2614 8.8153,18.2614 C9.0433,18.2614 9.2723,18.1844 9.4613,18.0244 M24.6023,18.0714 L30.9953,12.6654 C31.4173,12.3084 31.4693,11.6774 31.1133,11.2554 C30.7563,10.8344 30.1263,10.7804 29.7043,11.1374 L23.3113,16.5444 C22.8893,16.9004 22.8373,17.5314 23.1933,17.9534 C23.3913,18.1874 23.6743,18.3074 23.9583,18.3074 C24.1853,18.3074 24.4153,18.2304 24.6023,18.0714 M18.7083,18.8264 C18.5273,18.8264 18.3443,18.7774 18.1803,18.6754 L14.8703,16.6144 C14.4013,16.3224 14.2583,15.7064 14.5503,15.2374 C14.8423,14.7674 15.4603,14.6254 15.9263,14.9164 L19.2373,16.9774 C19.7063,17.2694 19.8493,17.8854 19.5573,18.3544 C19.3683,18.6594 19.0423,18.8264 18.7083,18.8264" id="Fill-3" fill="#0C87C6" mask="url(#mask-3)"></path>
                    </g>
                </g>
            </g>
        </g>
        <g id="stateMatrixService" transform="translate(317.000000, 644.000000)">
            <rect id="containerMatrixService" stroke="#BCBEC0" strokeWidth="2" fillRule="nonzero" fill="transparent" x="0" y="18" width="130" height="68" rx="4"></rect>
            <path id="pathMatrixService" fill="#0C87C6" fillRule="nonzero" stroke="#0C87C6" strokeWidth="0" d="M4,18 L126,18 C128.209139,18 130,19.790861 130,22 L130,86 L130,86 L0,86 L0,22 C-2.705415e-16,19.790861 1.790861,18 4,18 Z"></path>
            <text id="textMatrixService" fontFamily="din-2014, sans-serif" fontSize="21" fontWeight="500" linespacing="21" letterSpacing="0.21" fill="#0C87C6">
                <tspan x="36.2859082" y="51">Matrix</tspan>
                <tspan x="31.5" y="72">Service</tspan>
            </text>
            <g id="icon/matrix-service" transform="translate(115.000000, 0.000000)">
                <rect id="boundsIcon" x="0" y="0" width="72" height="65"></rect>
                <g id="iconPath" strokeWidth="1" fillRule="evenodd" transform="translate(0.000000, 8.000000)">
                    <polyline id="Fill-1" fill="#FFFFFF" points="2.17714729 1.57943798 53.620907 1.57943798 53.620907 54.049438 1.15346512 54.049438 1.15346512 1.57943798"></polyline>
                    <g id="Group-4" transform="translate(0.000000, 0.202519)">
                        <mask id="mask-6" fill="white">
                            <use href="#polygonIconMatrixService"></use>
                        </mask>
                        <g id="Clip-3"></g>
                        <path d="M52.4685078,2.52982946 L11.3421512,2.52982946 L11.3421512,9.25986822 L49.6153295,9.25986822 C50.2523062,9.25986822 50.768624,9.77618605 50.768624,10.4127364 C50.768624,11.0501395 50.2523062,11.566031 49.6153295,11.566031 L11.3421512,11.566031 L11.3421512,49.8413411 C11.3421512,50.4778915 10.826686,50.9942093 10.1892829,50.9942093 C9.5523062,50.9942093 9.03598837,50.4778915 9.03598837,49.8413411 L9.03598837,11.566031 L2.30594961,11.566031 L2.30594961,52.694093 L52.4685078,52.694093 L52.4685078,2.52982946 Z M2.30594961,9.25986822 L9.03598837,9.25986822 L9.03598837,2.52982946 L2.30594961,2.52982946 L2.30594961,9.25986822 Z M54.7742442,1.37696124 L54.7742442,53.8469612 C54.7742442,54.483938 54.2583527,54.9998295 53.6209496,54.9998295 L1.15350775,54.9998295 C0.515678295,54.9998295 -0.000213178295,54.483938 -0.000213178295,53.8469612 L-0.000213178295,1.37696124 C-0.000213178295,0.73955814 0.515678295,0.224093023 1.15350775,0.224093023 L53.6209496,0.224093023 C54.2583527,0.224093023 54.7742442,0.73955814 54.7742442,1.37696124 L54.7742442,1.37696124 Z M46.0428876,42.6457209 C44.6734302,42.6457209 43.5631977,43.7533953 43.5631977,45.1237054 C43.5631977,46.4931628 44.6734302,47.6012636 46.0428876,47.6012636 C47.4131977,47.6012636 48.5225775,46.4931628 48.5225775,45.1237054 C48.5225775,43.7533953 47.4131977,42.6457209 46.0428876,42.6457209 L46.0428876,42.6457209 Z M36.3735465,42.6457209 C35.0036628,42.6457209 33.8938566,43.7533953 33.8938566,45.1237054 C33.8938566,46.4931628 35.0036628,47.6012636 36.3735465,47.6012636 C37.7438566,47.6012636 38.8528101,46.4931628 38.8528101,45.1237054 C38.8528101,43.7533953 37.7438566,42.6457209 36.3735465,42.6457209 L36.3735465,42.6457209 Z M36.3735465,33.3046744 C35.0036628,33.3046744 33.8938566,34.4123488 33.8938566,35.7822326 C33.8938566,37.1525426 35.0036628,38.2606434 36.3735465,38.2606434 C37.7438566,38.2606434 38.8528101,37.1525426 38.8528101,35.7822326 C38.8528101,34.4123488 37.7438566,33.3046744 36.3735465,33.3046744 L36.3735465,33.3046744 Z M26.7042054,33.3046744 C25.3338953,33.3046744 24.2245155,34.4123488 24.2245155,35.7822326 C24.2245155,37.1525426 25.3338953,38.2606434 26.7042054,38.2606434 C28.0740891,38.2606434 29.1847481,37.1525426 29.1847481,35.7822326 C29.1847481,34.4123488 28.0740891,33.3046744 26.7042054,33.3046744 L26.7042054,33.3046744 Z M36.3735465,23.9632016 C35.0036628,23.9632016 33.8938566,25.0717287 33.8938566,26.4416124 C33.8938566,27.8114961 35.0036628,28.9195969 36.3735465,28.9195969 C37.7438566,28.9195969 38.8528101,27.8114961 38.8528101,26.4416124 C38.8528101,25.0717287 37.7438566,23.9632016 36.3735465,23.9632016 L36.3735465,23.9632016 Z M26.7042054,23.9632016 C25.3338953,23.9632016 24.2245155,25.0717287 24.2245155,26.4416124 C24.2245155,27.8114961 25.3338953,28.9195969 26.7042054,28.9195969 C28.0740891,28.9195969 29.1847481,27.8114961 29.1847481,26.4416124 C29.1847481,25.0717287 28.0740891,23.9632016 26.7042054,23.9632016 L26.7042054,23.9632016 Z M17.0331589,23.9632016 C15.6628488,23.9632016 14.5526163,25.0717287 14.5526163,26.4416124 C14.5526163,27.8114961 15.6628488,28.9195969 17.0331589,28.9195969 C18.4026163,28.9195969 19.5128488,27.8114961 19.5128488,26.4416124 C19.5128488,25.0717287 18.4026163,23.9632016 17.0331589,23.9632016 L17.0331589,23.9632016 Z M19.5128488,17.1005659 C19.5128488,18.4704496 18.4026163,19.5785504 17.0331589,19.5785504 C15.6628488,19.5785504 14.5526163,18.4704496 14.5526163,17.1005659 C14.5526163,15.7302558 15.6628488,14.6225814 17.0331589,14.6225814 C18.4026163,14.6225814 19.5128488,15.7302558 19.5128488,17.1005659 L19.5128488,17.1005659 Z" id="Fill-2" fill="#0C87C6" mask="url(#mask-6)"></path>
                    </g>
                </g>
            </g>
        </g>
        <g id="stateCLIDataAccess" transform="translate(176.000000, 644.000000)">
            <rect id="containerCLIDataAccess" stroke="#BCBEC0" strokeWidth="2" fillRule="nonzero" fill="transparent" x="0" y="18" width="130" height="68" rx="4"></rect>
            <path id="pathCLIDataAccess" fill="#0C87C6" fillRule="nonzero" stroke="#0C87C6" strokeWidth="0" d="M4,18 L126,18 C128.209139,18 130,19.790861 130,22 L130,86 L130,86 L0,86 L0,22 C-2.705415e-16,19.790861 1.790861,18 4,18 Z"></path>
            <text id="textCLIDataAccess" fontFamily="din-2014, sans-serif" fontSize="21" fontWeight="500" linespacing="21" letterSpacing="0.21" fill="#0C87C6">
                <tspan x="27.43" y="51">CLI Data</tspan>
                <tspan x="33.0906152" y="72">Access</tspan>
            </text>
            <g id="icon/CLI" transform="translate(115.000000, 0.000000)">
                <rect id="boundsIcon" x="0" y="0" width="72" height="65"></rect>
                <g id="iconPath" strokeWidth="1" fillRule="evenodd" transform="translate(0.000000, 5.000000)">
                    <path d="M59.3496,21.0518 C59.2086,10.6928 50.7806,1.9998 40.3906,1.9998 C33.7736,1.9998 27.5586,5.5738 24.1286,10.7318 C22.6176,9.7318 20.8086,9.1458 18.8616,9.1458 C13.5996,9.1458 9.3316,13.4068 9.3316,18.6688 C9.3316,18.8488 9.3496,19.0298 9.3616,19.2078 C9.3496,19.4228 9.3316,19.6448 9.3316,19.8598 C4.5876,22.1338 0.9996,27.5458 0.9996,33.1378 C0.9996,37.9818 3.4706,42.2748 7.2126,44.8178 L7.6326,44.8438 L7.6326,45.7078 L7.6326,53.3668 L3.3416,53.3668 L4.9906,57.7808 L51.0316,57.7808 L52.6816,53.3668 L48.0106,53.3668 L48.0106,48.2438 L48.0106,47.2438 L56.9316,47.2438 C64.1526,47.2438 70.0586,41.3358 70.0586,34.1148 C70.0586,27.7198 65.4256,22.1908 59.3496,21.0518" id="Fill-1" fill="#FFFFFF"></path>
                    <g id="Group-5" transform="translate(0.000000, 0.780800)">
                        <mask id="mask-9" fill="white">
                            <use href="#polygonIconCLI"></use>
                        </mask>
                        <g id="Clip-4"></g>
                        <path d="M36.9756,47.0039 L19.0446,47.0039 C18.4926,47.0039 18.0446,46.5569 18.0446,46.0039 C18.0446,45.4509 18.4926,45.0039 19.0446,45.0039 L36.9756,45.0039 C37.5286,45.0039 37.9756,45.4509 37.9756,46.0039 C37.9756,46.5569 37.5286,47.0039 36.9756,47.0039 L36.9756,47.0039 Z M36.9756,41.2419 L19.0446,41.2419 C18.4926,41.2419 18.0446,40.7949 18.0446,40.2419 C18.0446,39.6899 18.4926,39.2419 19.0446,39.2419 L36.9756,39.2419 C37.5286,39.2419 37.9756,39.6899 37.9756,40.2419 C37.9756,40.7949 37.5286,41.2419 36.9756,41.2419 L36.9756,41.2419 Z M36.9756,35.4789 L19.0446,35.4789 C18.4926,35.4789 18.0446,35.0309 18.0446,34.4789 C18.0446,33.9259 18.4926,33.4789 19.0446,33.4789 L36.9756,33.4789 C37.5286,33.4789 37.9756,33.9259 37.9756,34.4789 C37.9756,35.0309 37.5286,35.4789 36.9756,35.4789 L36.9756,35.4789 Z M45.4606,50.0649 C45.2046,50.0649 44.9496,49.9669 44.7536,49.7719 L41.4476,46.4629 L44.7536,43.1559 C45.1446,42.7659 45.7776,42.7659 46.1676,43.1559 C46.5586,43.5469 46.5586,44.1799 46.1676,44.5699 L44.2756,46.4629 L46.1676,48.3579 C46.5586,48.7479 46.5586,49.3819 46.1676,49.7719 C45.9726,49.9669 45.7166,50.0649 45.4606,50.0649 L45.4606,50.0649 Z M48.0106,53.5859 L51.2406,53.5859 L50.3376,55.9999 L5.6846,55.9999 L4.7826,53.5859 L7.6326,53.5859 L48.0106,53.5859 Z M60.3236,19.4609 C59.7656,8.7799 50.9836,0.2189 40.3906,0.2189 C33.9286,0.2189 27.6746,3.4149 23.8426,8.6159 C22.3136,7.7949 20.6096,7.3649 18.8616,7.3649 C13.0556,7.3649 8.3316,12.0859 8.3316,17.8879 C8.3316,18.0479 8.3426,18.2089 8.3546,18.3679 L8.3596,18.4329 L8.3586,18.4509 C3.4096,21.0949 -0.0004,26.7229 -0.0004,32.3579 C-0.0004,37.3519 2.4796,42.0209 6.6326,44.8519 L6.6326,51.5859 L3.3416,51.5859 C3.0136,51.5859 2.7066,51.7459 2.5206,52.0159 C2.3326,52.2849 2.2896,52.6289 2.4056,52.9359 L4.0536,57.3499 C4.1996,57.7409 4.5736,57.9999 4.9906,57.9999 L51.0316,57.9999 C51.4486,57.9999 51.8226,57.7409 51.9676,57.3509 L53.6186,52.9369 C53.7336,52.6289 53.6906,52.2849 53.5026,52.0159 C53.3166,51.7469 53.0096,51.5859 52.6816,51.5859 L48.0106,51.5859 L8.6326,51.5859 L8.6326,28.0269 L47.0106,28.0269 L47.0106,40.2749 C47.0106,40.8279 47.4576,41.2749 48.0106,41.2749 C48.5636,41.2749 49.0106,40.8279 49.0106,40.2749 L49.0106,27.0269 C49.0106,26.4749 48.5636,26.0269 48.0106,26.0269 L7.6326,26.0269 C7.0796,26.0269 6.6326,26.4749 6.6326,27.0269 L6.6326,42.3079 C3.7186,39.8229 1.9996,36.2089 1.9996,32.3579 C1.9996,27.2619 5.1926,22.1719 9.7646,19.9809 L10.3316,19.7079 L10.3316,19.0789 C10.3316,18.9359 10.3416,18.7889 10.3506,18.6439 L10.3636,18.4219 L10.3496,18.2219 C10.3406,18.1109 10.3316,17.9989 10.3316,17.8879 C10.3316,13.1889 14.1586,9.3649 18.8616,9.3649 C20.5416,9.3649 22.1726,9.8559 23.5776,10.7849 L24.4096,11.3349 L24.9616,10.5039 C28.3086,5.4709 34.3656,2.2189 40.3906,2.2189 C50.1586,2.2189 58.2146,10.3229 58.3496,20.2849 L58.3606,21.1029 L59.1646,21.2539 C64.8056,22.3109 69.0586,27.5039 69.0586,33.3339 C69.0586,40.0219 63.6186,45.4629 56.9316,45.4629 L48.0106,45.4629 L48.0106,47.4629 L56.9316,47.4629 C64.7216,47.4629 71.0586,41.1249 71.0586,33.3339 C71.0586,26.8319 66.4966,21.0089 60.3236,19.4609 L60.3236,19.4609 Z" id="Fill-3" fill="#0C87C6" mask="url(#mask-9)"></path>
                    </g>
                </g>
            </g>
        </g>
        <g id="stateHCADataStorage" transform="translate(35.000000, 644.000000)">
            <rect id="containerHCADataStorage" stroke="#BCBEC0" strokeWidth="2" fillRule="nonzero" fill="transparent" x="0" y="18" width="130" height="68" rx="4"></rect>
            <path id="pathHCADataStorage" fill="#0C87C6" fillRule="nonzero" stroke="#0C87C6" strokeWidth="0" d="M4,18 L126,18 C128.209139,18 130,19.790861 130,22 L130,86 L130,86 L0,86 L0,22 C-2.705415e-16,19.790861 1.790861,18 4,18 Z"></path>
            <text id="textHCADataStorage" fontFamily="din-2014, sans-serif" fontSize="21" fontWeight="500" linespacing="21" letterSpacing="0.21" fill="#0C87C6">
                <tspan x="22.85" y="51">HCA Data</tspan>
                <tspan x="26.69" y="72">Browser</tspan>
            </text>
            <g id="icon/browser" transform="translate(115.000000, 0.000000)">
                <rect id="boundsIcon" x="0" y="0" width="72" height="65"></rect>
                <g id="iconPath" strokeWidth="1" fillRule="evenodd" transform="translate(0.000000, 4.500000)">
                    <path d="M43.8457,39.6631 L39.1777,44.3291 L53.7967,58.9421 L58.4607,54.2781 L43.8457,39.6631 Z M43.1677,23.0831 C43.1677,34.7261 33.7247,44.1651 22.0837,44.1651 C10.4437,44.1651 0.9997,34.7261 0.9997,23.0831 C0.9997,11.4381 10.4437,2.0001 22.0837,2.0001 C33.7247,2.0001 43.1677,11.4381 43.1677,23.0831 L43.1677,23.0831 Z" id="Fill-1" fill="#FFFFFF"></path>
                    <g id="Group-5" transform="translate(0.000000, 0.942400)">
                        <mask id="mask-12" fill="white">
                            <use href="#polygonIconBrowser"></use>
                        </mask>
                        <g id="Clip-4"></g>
                        <path d="M53.7969,56.5859 L40.5919,43.3869 L43.8459,40.1349 L57.0469,53.3359 L53.7969,56.5859 Z M12.7929,39.9279 L12.7929,17.1719 L22.3929,17.1719 L22.3929,24.1629 C22.3929,25.2679 23.2879,26.1629 24.3929,26.1629 L31.3869,26.1629 L31.3869,39.9219 C28.6029,41.3839 25.4419,42.2229 22.0839,42.2229 C18.7319,42.2229 15.5739,41.3859 12.7929,39.9279 L12.7929,39.9279 Z M31.3869,24.1629 L24.3929,24.1629 L24.3929,17.1719 L31.3869,24.1629 Z M1.9999,22.1409 C1.9999,11.0669 11.0099,2.0579 22.0839,2.0579 C33.1579,2.0579 42.1679,11.0669 42.1679,22.1409 C42.1679,29.0249 38.6829,35.1069 33.3869,38.7279 L33.3869,24.1629 C33.3869,24.0319 33.3729,23.9029 33.3489,23.7769 C33.3489,23.7749 33.3489,23.7729 33.3479,23.7719 C33.3149,23.6019 33.2509,23.4419 33.1759,23.2869 C33.1559,23.2479 33.1359,23.2099 33.1129,23.1709 C33.0259,23.0199 32.9269,22.8749 32.8009,22.7489 L25.8069,15.7569 C25.7119,15.6629 25.6089,15.5789 25.4989,15.5059 C25.4619,15.4819 25.4209,15.4659 25.3829,15.4439 C25.3079,15.4009 25.2339,15.3559 25.1529,15.3229 C25.0939,15.2979 25.0309,15.2849 24.9699,15.2669 C24.9059,15.2479 24.8459,15.2229 24.7809,15.2109 C24.6529,15.1849 24.5239,15.1719 24.3929,15.1719 L12.7929,15.1719 C11.6889,15.1719 10.7929,16.0669 10.7929,17.1719 L10.7929,38.7359 C5.4899,35.1169 1.9999,29.0299 1.9999,22.1409 L1.9999,22.1409 Z M59.1679,52.6289 L44.5529,38.0139 C44.1619,37.6229 43.5289,37.6229 43.1389,38.0139 L41.2539,39.8979 L38.3819,37.0239 C41.9739,33.0959 44.1679,27.8699 44.1679,22.1409 C44.1679,9.9639 34.2609,0.0579 22.0839,0.0579 C9.9069,0.0579 -0.0001,9.9639 -0.0001,22.1409 C-0.0001,34.3159 9.9069,44.2229 22.0839,44.2229 C27.8129,44.2229 33.0389,42.0289 36.9679,38.4389 L39.8389,41.3119 L38.4709,42.6799 C38.2829,42.8669 38.1779,43.1209 38.1779,43.3869 C38.1779,43.6519 38.2829,43.9059 38.4709,44.0939 L53.0899,58.7069 C53.2849,58.9019 53.5409,58.9999 53.7969,58.9999 C54.0529,58.9999 54.3089,58.9019 54.5039,58.7069 L59.1679,54.0429 C59.5589,53.6519 59.5589,53.0199 59.1679,52.6289 L59.1679,52.6289 Z" id="Fill-3" fill="#0C87C6" mask="url(#mask-12)"></path>
                    </g>
                </g>
            </g>
        </g>
        <g id="flowPathRetrievedHCAData" transform="translate(208.000000, 522.000000)">
            <g id="processedDataRetrieveHCAData" transform="translate(95.000000, 0.000000)">
                <g id="tooltipProcessedDataRetrieveHCAData" transform="translate(0.000000, 0.500000)">
                    <path id="tooltipPathProcessedDataRetrieveHCAData" d="M138,1 C139.656854,1 141,2.34314575 141,4 L141,37.8458274 C141,39.5026817 139.656854,40.8458274 138,40.8458274 L78.985,40.845 L71.8320503,51.5746261 C71.7832271,51.6478609 71.725058,51.7141672 71.6591546,51.7719334 L71.5547002,51.8519762 C71.0951715,52.1583286 70.4743022,52.0341548 70.1679497,51.5746261 L70.1679497,51.5746261 L63.015,40.845 L4,40.8458274 C2.34314575,40.8458274 1,39.5026817 1,37.8458274 L1,4 C1,2.34314575 2.34314575,1 4,1 L138,1 Z" stroke="#0C87C6" strokeWidth="2" fill="#0C87C6" fillRule="nonzero" transform="translate(71.000000, 26.500000) scale(-1, 1) translate(-71.000000, -26.500000) "></path>
                    <text id="tooltipTextProcessedDataRetrieveHCAData" fontFamily="Montserrat, sans-serif" fontSize="14" fontWeight="600" fill="#FFFFFF">
                        <tspan x="14.489" y="26">Processed Data</tspan>
                    </text>
                </g>
                <rect id="boundsProcessedDataRetrieveHCAData" x="61" y="51.5" width="23" height="25"></rect>
                <g id="symbolProcessedDataRetrieveHCAData" transform="translate(65.000000, 58.500000)" fill="#E2A44F">
                    <polygon id="symbolPolygonProcessedDataRetrieveHCAData" points="6 0 -1.03028697e-13 11 11.999 11"></polygon>
                </g>
            </g>
            <g id="metaDataRetrieveHCAData" transform="translate(94.000000, 0.000000)">
                <g id="tooltipMetaDataRetrieveHCAData" transform="translate(0.000000, 0.500000)">
                    <path id="tooltipPathMetaDataRetrieveHCAData" d="M4,41 C2.34314575,41 1,39.6568542 1,38 L1,4 C1,2.34314575 2.34314575,1 4,1 L102,1 C103.656854,1 105,2.34314575 105,4 L105,38 C105,39.6568542 103.656854,41 102,41 L61,41 L53.8320503,51.7519246 C53.7588154,51.8617768 53.6645525,51.9560398 53.5547002,52.0292747 C53.0951715,52.3356271 52.4743022,52.2114532 52.1679497,51.7519246 L52.1679497,51.7519246 L45,41 L4,41 Z" stroke="#0C87C6" strokeWidth="2" fill="#0C87C6" fillRule="nonzero" transform="translate(53.000000, 26.598665) scale(-1, 1) translate(-53.000000, -26.598665)"></path>
                    <text id="tooltipTextMetaDataRetrieveHCAData" fontFamily="Montserrat, sans-serif" fontSize="14" fontWeight="600" fill="#FFFFFF">
                        <tspan x="18.469" y="26">Metadata</tspan>
                    </text>
                </g>
                <rect id="boundsMetaDataRetrieveHCAData" x="44" y="52" width="18" height="24"></rect>
                <g id="symbolMetaDataRetrieveHCAData" transform="translate(48.000000, 59.000000)" fill="#A0267A">
                    <polygon id="symbolPolygonMetaDataRetrieveHCAData" points="0 10 10 10 10 0 0 0"></polygon>
                </g>
            </g>
            <g id="rawDataRetrieveHCAData" transform="translate(75.500000, 0.000000)">
                <g id="tooltipRawDataRetrieveHCAData" transform="translate(0.000000, 0.500000)">
                    <path id="tooltipPathRawDataRetrieveHCAData" d="M4,41 C2.34314575,41 1,39.6568542 1,38 L1,4 C1,2.34314575 2.34314575,1 4,1 L102,1 C103.656854,1 105,2.34314575 105,4 L105,38 C105,39.6568542 103.656854,41 102,41 L61,41 L53.8320503,51.7519246 C53.7588154,51.8617768 53.6645525,51.9560398 53.5547002,52.0292747 C53.0951715,52.3356271 52.4743022,52.2114532 52.1679497,51.7519246 L52.1679497,51.7519246 L45,41 L4,41 Z" stroke="#0C87C6" strokeWidth="2" fill="#0C87C6" fillRule="nonzero" transform="translate(53.000000, 26.598665) scale(-1, 1) translate(-53.000000, -26.598665) "></path>
                    <text id="tooltipTextRawDataRetrieveHCAData" fontFamily="Montserrat, sans-serif" fontSize="14" fontWeight="600" fill="#FFFFFF">
                        <tspan x="18.021" y="26">Raw Data</tspan>
                    </text>
                </g>
                <rect id="boundsRawDataRetrieveHCAData" x="40.5" y="51.5" width="22" height="25"></rect>
                <g id="symbolRawDataRetrieveHCAData" transform="translate(47.500000, 58.500000)" fill="#0C87C6">
                    <path id="symbolPolygonRawDataRetrieveHCAData" d="M5.5,0 C2.463,0 0,2.462 0,5.5 C0,8.537 2.463,11 5.5,11 C8.537,11 11,8.537 11,5.5 C11,2.462 8.537,0 5.5,0"></path>
                </g>
            </g>
            <text id="textRetrieveHCAData" fontFamily="Montserrat, sans-serif" fontSize="11" fontWeight="600" letter-spacing="0.1" fill="#0068A7">
                <tspan x="0.263999987" y="68">Retrieved HCA Dat</tspan>
                <tspan x="108.059" y="68">a</tspan>
            </text>
        </g>
        <g id="flowPathUploadProcessedData" transform="translate(210.000000, 217.000000)">
            <g id="processedDataUploadProcessedData" transform="translate(136.000000, 0.000000)">
                <g id="tooltipProcessedDataUploadProcessedData" transform="translate(24.000000, 0.000000)">
                    <path id="tooltipPathProcessedDataUploadProcessedData" d="M137.802669,1 C139.459524,1 140.802669,2.34314575 140.802669,4 L140.802669,38 C140.802669,39.6568542 139.459524,41 137.802669,41 L3.80266936,41 C2.14581511,41 0.802669364,39.6568542 0.802669364,38 L0.802669364,4 C0.802669364,2.34314575 2.14581511,1 3.80266936,1 L137.802669,1 Z M142.802669,13 L153.554594,20.1679497 C154.014123,20.4743022 154.138296,21.0951715 153.831944,21.5547002 C153.758709,21.6645525 153.664446,21.7588154 153.554594,21.8320503 L142.802669,29 L142.802669,13 Z" stroke="#0C87C6" strokeWidth="2" fill="#0C87C6" fillRule="nonzero" transform="translate(77.401335, 21.000000) scale(-1, 1) translate(-77.401335, -21.000000) "></path>
                    <text id="tooltipTextProcessedDataUploadProcessedData" fontFamily="Montserrat, sans-serif" fontSize="14" fontWeight="600" fill="#FFFFFF">
                        <tspan x="27.489" y="26">Processed Data</tspan>
                    </text>
                </g>
                <rect id="boundsProcessedDataUploadProcessedData" x="0" y="8.5" width="26" height="25"></rect>
                <g id="symbolProcessedDataUploadProcessedData" transform="translate(7.000000, 15.500000)" fill="#E2A44F">
                    <polygon id="symbolPolygonProcessedDataUploadProcessedData" points="6 0 -1.03028697e-13 11 11.999 11"></polygon>
                </g>
            </g>
            <text id="textUploadProcessedData" fontFamily="Montserrat, sans-serif" fontSize="11" fontWeight="600" letter-spacing="0.1" fill="#0068A7">
                <tspan x="0.356499984" y="25">Upload Processed Data</tspan>
            </text>
        </g>
        <g id="statePipelines" transform="translate(358.000000, 297.000000)">
            <rect id="containerPipelines" stroke="#BCBEC0" strokeWidth="2" fillRule="nonzero" fill="transparent" x="0" y="18" width="170" height="60" rx="4"></rect>
            <path id="pathPipelines" fill="#0C87C6" fillRule="nonzero" stroke="#0C87C6" strokeWidth="0" d="M4,18 L166,18 C168.209139,18 170,19.790861 170,22 L170,78 L170,78 L0,78 L0,22 C-2.705415e-16,19.790861 1.790861,18 4,18 Z"></path>
            <text id="textPipelines" fontFamily="din-2014, sans-serif" fontSize="21" fontWeight="500" linespacing="28" letterSpacing="0.21" fill="#0C87C6">
                <tspan x="43.93" y="54">Pipelines</tspan>
            </text>
            <g id="icon/pipelines" transform="translate(155.000000, 0.000000)">
                <rect id="boundsIcon" x="0" y="0" width="72" height="65"></rect>
                <g id="iconPath" strokeWidth="1" fillRule="evenodd" transform="translate(0.000000, 4.500000)">
                    <path d="M53.1719,1.9634 L45.7379,14.9694 L60.6059,14.9694 L53.1719,1.9634 Z M42.3429,24.1294 L65.3219,24.1294 L65.3219,19.5824 L42.3429,19.5824 L42.3429,24.1294 Z M62.1919,24.1294 L62.1919,36.2884 C62.1919,44.1164 55.8419,50.4584 48.0199,50.4584 L36.7109,50.4584 L36.7109,57.4504 C36.7109,58.0034 36.2639,58.4504 35.7109,58.4504 L1.9999,58.4504 C1.4469,58.4504 0.9999,58.0034 0.9999,57.4504 L0.9999,10.8424 C0.9999,10.2904 1.4469,9.8424 1.9999,9.8424 L23.0329,9.8424 C23.2989,9.8424 23.5529,9.9474 23.7399,10.1354 L36.4179,22.8114 C36.6059,22.9984 36.7109,23.2534 36.7109,23.5184 L36.7109,33.7474 L41.8499,33.7474 C43.8539,33.7474 45.4809,32.1264 45.4809,30.1214 L45.4809,24.1294 L62.1919,24.1294 Z" id="Fill-1" fill="#FFFFFF"></path>
                    <g id="Group-5" transform="translate(0.000000, 0.450200)">
                        <mask id="mask-15" fill="white">
                            <use href="#polygonIconPipelines"></use>
                        </mask>
                        <g id="Clip-4"></g>
                        <path d="M29.5449,35.7012 C29.5449,35.1482 29.0979,34.7012 28.5449,34.7012 L9.1659,34.7012 C8.6129,34.7012 8.1659,35.1482 8.1659,35.7012 C8.1659,36.2542 8.6129,36.7012 9.1659,36.7012 L28.5449,36.7012 C29.0979,36.7012 29.5449,36.2542 29.5449,35.7012 L29.5449,35.7012 Z M29.5449,41.9882 C29.5449,41.4352 29.0979,40.9882 28.5449,40.9882 L9.1659,40.9882 C8.6129,40.9882 8.1659,41.4352 8.1659,41.9882 C8.1659,42.5412 8.6129,42.9882 9.1659,42.9882 L28.5449,42.9882 C29.0979,42.9882 29.5449,42.5412 29.5449,41.9882 L29.5449,41.9882 Z M29.5449,49.2772 C29.5449,48.7242 29.0979,48.2772 28.5449,48.2772 L9.1659,48.2772 C8.6129,48.2772 8.1659,48.7242 8.1659,49.2772 C8.1659,49.8302 8.6129,50.2772 9.1659,50.2772 L28.5449,50.2772 C29.0979,50.2772 29.5449,49.8302 29.5449,49.2772 L29.5449,49.2772 Z M57.4609,33.6992 L53.6169,29.8532 L49.7699,33.6992 C49.3789,34.0892 49.3789,34.7222 49.7699,35.1132 C50.1599,35.5042 50.7929,35.5042 51.1839,35.1132 L52.6149,33.6822 L52.6149,34.6352 C52.6149,38.9832 50.3169,41.2812 45.9689,41.2812 L42.9629,41.2812 C42.4099,41.2812 41.9629,41.7282 41.9629,42.2812 C41.9629,42.8342 42.4099,43.2812 42.9629,43.2812 L45.9689,43.2812 C51.3829,43.2812 54.6149,40.0492 54.6149,34.6352 L54.6149,33.6802 L56.0469,35.1132 C56.2419,35.3082 56.4979,35.4062 56.7539,35.4062 C57.0099,35.4062 57.2659,35.3082 57.4609,35.1132 C57.8519,34.7232 57.8519,34.0902 57.4609,33.6992 L57.4609,33.6992 Z M64.3219,22.6792 L63.1909,22.6792 L44.4809,22.6792 L43.3439,22.6792 L43.3439,20.1322 L64.3219,20.1322 L64.3219,22.6792 Z M61.1909,35.8382 C61.1909,43.0992 55.2819,49.0082 48.0199,49.0082 L37.7109,49.0082 L37.7109,34.2972 L41.8499,34.2972 C44.4029,34.2972 46.4809,32.2222 46.4809,29.6712 L46.4809,24.6792 L61.1909,24.6792 L61.1909,35.8382 Z M35.7109,57.0002 L32.6249,57.0002 L1.9999,57.0002 L1.9999,10.3922 L21.0329,10.3922 L21.0329,23.0622 C21.0329,24.1662 21.9289,25.0622 23.0329,25.0622 L35.7109,25.0622 L35.7109,32.2972 L35.7109,34.2972 L35.7109,49.0082 L35.7109,51.0082 L35.7109,57.0002 Z M23.0329,10.3922 L35.7049,23.0622 L23.0329,23.0622 L23.0329,10.3922 Z M41.3439,18.1322 L41.3439,24.6792 L44.4809,24.6792 L44.4809,29.6712 C44.4809,31.1192 43.2999,32.2972 41.8499,32.2972 L37.7109,32.2972 L37.7109,23.0682 C37.7109,22.9392 37.6969,22.8122 37.6739,22.6882 C37.6699,22.6712 37.6639,22.6552 37.6599,22.6382 C37.6269,22.4872 37.5729,22.3432 37.5069,22.2052 C37.4819,22.1532 37.4549,22.1042 37.4259,22.0552 C37.3539,21.9302 37.2689,21.8142 37.1699,21.7082 C37.1519,21.6892 37.1439,21.6652 37.1249,21.6472 L24.4469,8.9772 C24.3529,8.8832 24.2489,8.7992 24.1399,8.7262 C24.1029,8.7012 24.0619,8.6862 24.0239,8.6642 C23.9479,8.6212 23.8739,8.5762 23.7939,8.5432 C23.7339,8.5182 23.6719,8.5062 23.6099,8.4872 C23.5469,8.4682 23.4859,8.4432 23.4219,8.4302 C23.2939,8.4052 23.1639,8.3922 23.0329,8.3922 L1.9999,8.3922 C0.8959,8.3922 -0.0001,9.2872 -0.0001,10.3922 L-0.0001,57.0002 C-0.0001,58.1042 0.8959,59.0002 1.9999,59.0002 L32.6249,59.0002 L35.7109,59.0002 C36.8159,59.0002 37.7109,58.1042 37.7109,57.0002 L37.7109,51.0082 L48.0199,51.0082 C56.3859,51.0082 63.1909,44.2022 63.1909,35.8382 L63.1909,24.6792 L66.3219,24.6792 L66.3219,18.1322 L41.3439,18.1322 Z M47.4619,13.5192 L58.8819,13.5192 L53.1719,3.5282 L47.4619,13.5192 Z M60.6059,15.5192 L45.7378958,15.5192 C45.3819,15.5192 45.0529,15.3292 44.8729,15.0212 C44.6939,14.7122 44.6929,14.3322 44.8699,14.0232 L52.3039,1.0172 C52.6589,0.3942 53.6849,0.3942 54.0399,1.0172 L61.4739,14.0232 C61.6499,14.3322 61.6489,14.7122 61.4709,15.0212 C61.2909,15.3292 60.9619,15.5192 60.6059,15.5192 L60.6059,15.5192 Z" id="Fill-3" fill="#0C87C6" mask="url(#mask-15)"></path>
                    </g>
                </g>
            </g>
        </g>
        <g id="flowPathReceiveRawData" transform="translate(221.000000, 443.000000)">
            <g id="rawDataReceiveRawData" transform="translate(116.000000, 0.000000)">
                <g id="tooltipRawDataReceiveRawData" transform="translate(23.000000, 0.000000)">
                    <path id="tooltipPathRawDataReceiveRawData" d="M107.802669,1 C109.459524,1 110.802669,2.34314575 110.802669,4 L110.802669,38 C110.802669,39.6568542 109.459524,41 107.802669,41 L3.80266936,41 C2.14581511,41 0.802669364,39.6568542 0.802669364,38 L0.802669364,4 C0.802669364,2.34314575 2.14581511,1 3.80266936,1 L107.802669,1 Z M111.802669,13 L122.554594,20.1679497 C123.014123,20.4743022 123.138296,21.0951715 122.831944,21.5547002 C122.758709,21.6645525 122.664446,21.7588154 122.554594,21.8320503 L111.802669,29 L111.802669,13 Z" stroke="#0C87C6" strokeWidth="2" fill="#0C87C6" fillRule="nonzero" transform="translate(61.901335, 21.000000) scale(-1, 1) translate(-61.901335, -21.000000) "></path>
                    <text id="tooltipTextRawDataReceiveRawData" fontFamily="Montserrat, sans-serif" fontSize="14" fontWeight="600" fill="#FFFFFF">
                        <tspan x="33.021" y="26">Raw Data</tspan>
                    </text>
                </g>
                <rect id="boundsRawDataReceiveRawData" x="0" y="8.5" width="25" height="25"></rect>
                <g id="symbolRawDataReceiveRawData" transform="translate(7.000000, 15.500000)" fill="#0C87C6">
                    <path id="symbolPathRawDataReceiveRawData" d="M5.5,0 C2.463,0 0,2.462 0,5.5 C0,8.537 2.463,11 5.5,11 C8.537,11 11,8.537 11,5.5 C11,2.462 8.537,0 5.5,0"></path>
                </g>
            </g>
            <text id="textReceiveRawData" fontFamily="Montserrat, sans-serif" fontSize="11" fontWeight="600" letter-spacing="0.1" fill="#0068A7">
                <tspan x="0.373499987" y="25">Retrieved Raw Data</tspan>
            </text>
        </g>
        <g id="stateStorage" transform="translate(15.000000, 366.000000)">
            <rect id="containerStorage" stroke="#BCBEC0" strokeWidth="2" fillRule="nonzero" fill="transparent" x="0" y="20" width="170" height="124" rx="4"></rect>
            <path id="pathStorage" fill="#0C87C6" fillRule="nonzero" stroke="#0C87C6" strokeWidth="0" d="M4,20 L166,20 C168.209139,20 170,21.790861 170,24 L170,144 L170,144 L0,144 L0,24 C-2.705415e-16,21.790861 1.790861,20 4,20 Z"></path>
            <text id="textStorage" fontFamily="din-2014, sans-serif" fontSize="21" fontWeight="500" linespacing="28" letterSpacing="0.21" fill="#0C87C6">
                <tspan x="50" y="50">Storage</tspan>
            </text>
            <g id="substateGCP" transform="translate(10.000000, 103.000000)">
                <rect id="containerGCP" fill="#FFFFFF" fillRule="nonzero" x="0" y="0" width="150" height="30" rx="3"></rect>
                <text id="textGCP" fontFamily="Montserrat, sans-serif" fontSize="14" fontWeight="600" fill="#717272">
                    <tspan x="60.79" y="20">GCP</tspan>
                </text>
            </g>
            <g id="substateAWS" transform="translate(10.000000, 68.000000)">
                <rect id="containerAWS" fill="#FFFFFF" fillRule="nonzero" x="0" y="0" width="150" height="30" rx="3"></rect>
                <text id="textAWS" fontFamily="Montserrat, sans-serif" fontSize="14" fontWeight="600" fill="#717272">
                    <tspan x="59.685" y="20">AWS</tspan>
                </text>
            </g>
            <g id="icon/storage" transform="translate(130.000000, 0.000000)">
                <rect id="boundsIcon" x="0" y="0" width="72" height="65"></rect>
                <g id="iconPath" strokeWidth="1" fillRule="evenodd" transform="translate(0.000000, 8.000000)">
                    <path d="M57.2695,20.374 C57.1345,10.384 49.0035,2 38.9845,2 C32.6055,2 26.6115,5.449 23.3025,10.422 C21.8455,9.458 20.1015,8.893 18.2245,8.893 C13.1505,8.893 9.0355,13.001 9.0355,18.075 C9.0355,18.248 9.0505,18.423 9.0625,18.595 C9.0505,18.804 9.0355,19.015 9.0355,19.224 C4.4585,21.417 0.9995,26.637 0.9995,32.03 C0.9995,39.515 7.1175,45.632 14.6015,45.632 L17.4945,45.632 L17.4945,54.929 L40.3165,54.929 L40.3165,45.632 L45.3125,45.632 L54.9375,45.632 C61.9005,45.632 67.5955,39.933 67.5955,32.97 C67.5955,26.805 63.1265,21.472 57.2695,20.374" id="Fill-1" fill="#FFFFFF"></path>
                    <g id="Group-5" transform="translate(0.000000, 0.928700)">
                        <mask id="mask-18" fill="white">
                            <use href="#polygonIconStorage"></use>
                        </mask>
                        <g id="Clip-4"></g>
                        <path d="M32.7363,30.0234 L37.9023,30.0234 L32.7363,24.8574 L32.7363,30.0234 Z M68.5953,32.0414 C68.5953,39.5744 62.4683,45.7034 54.9373,45.7034 L45.3123,45.7034 C44.7603,45.7034 44.3123,45.2554 44.3123,44.7034 C44.3123,44.1504 44.7603,43.7034 45.3123,43.7034 L54.9373,43.7034 C61.3663,43.7034 66.5953,38.4714 66.5953,32.0414 C66.5953,26.4364 62.5073,21.4444 57.0853,20.4284 L56.2803,20.2774 L56.2693,19.4594 C56.1403,9.8714 48.3863,2.0714 38.9843,2.0714 C33.1873,2.0714 27.3593,5.2024 24.1353,10.0464 L23.5833,10.8774 L22.7513,10.3274 C21.4033,9.4354 19.8373,8.9634 18.2243,8.9634 C13.7093,8.9634 10.0353,12.6344 10.0353,17.1464 C10.0353,17.2624 10.0443,17.3784 10.0523,17.4944 L10.0533,17.8484 C10.0443,17.9974 10.0353,18.1474 10.0353,18.2944 L10.0353,18.9244 L9.4673,19.1964 C5.1403,21.2704 2.0003,26.2774 2.0003,31.1014 C2.0003,38.0494 7.6533,43.7034 14.6013,43.7034 L16.4943,43.7034 L16.4943,22.4434 C16.4943,21.8914 16.9423,21.4434 17.4943,21.4434 L31.7323,21.4434 C31.7523,21.4434 31.7693,21.4534 31.7883,21.4544 C31.8853,21.4604 31.9793,21.4784 32.0703,21.5114 C32.0963,21.5214 32.1223,21.5274 32.1463,21.5384 C32.2543,21.5874 32.3563,21.6494 32.4433,21.7364 L41.0233,30.3164 C41.3093,30.6024 41.3953,31.0324 41.2403,31.4064 C41.0853,31.7804 40.7203,32.0234 40.3163,32.0234 L31.7363,32.0234 C31.1843,32.0234 30.7363,31.5764 30.7363,31.0234 L30.7363,23.4434 L18.4943,23.4434 L18.4943,53.0004 L39.3163,53.0004 L39.3163,35.3434 C39.3163,34.7914 39.7643,34.3434 40.3163,34.3434 C40.8683,34.3434 41.3163,34.7914 41.3163,35.3434 L41.3163,54.0004 C41.3163,54.5524 40.8683,55.0004 40.3163,55.0004 L17.4943,55.0004 C16.9423,55.0004 16.4943,54.5524 16.4943,54.0004 L16.4943,45.7034 L14.6013,45.7034 C6.5503,45.7034 0.0003,39.1534 0.0003,31.1014 C0.0003,25.6624 3.2863,20.2284 8.0603,17.6684 C8.0443,17.4464 8.0353,17.2954 8.0353,17.1464 C8.0353,11.5314 12.6063,6.9634 18.2243,6.9634 C19.9053,6.9634 21.5443,7.3754 23.0163,8.1604 C26.7223,3.1484 32.7543,0.0714 38.9843,0.0714 C49.2123,0.0714 57.6923,8.3284 58.2423,18.6364 C64.1983,20.1424 68.5953,25.7644 68.5953,32.0414 L68.5953,32.0414 Z M33.7773,41.8374 C33.5823,42.0334 33.3263,42.1304 33.0703,42.1304 C32.8143,42.1304 32.5583,42.0334 32.3633,41.8374 L29.9043,39.3794 L29.9043,49.1524 C29.9043,49.7054 29.4563,50.1524 28.9043,50.1524 C28.3523,50.1524 27.9043,49.7054 27.9043,49.1524 L27.9043,39.3794 L25.4453,41.8374 C25.0543,42.2284 24.4213,42.2284 24.0313,41.8374 C23.6403,41.4474 23.6403,40.8144 24.0313,40.4234 L28.1973,36.2594 L28.9043,35.5524 L29.6113,36.2594 L33.7773,40.4234 C34.1683,40.8144 34.1683,41.4474 33.7773,41.8374 L33.7773,41.8374 Z" id="Fill-3" fill="#0C87C6" mask="url(#mask-18)"></path>
                    </g>
                </g>
            </g>
        </g>
        <g id="boundsValidation" transform="translate(15.000000, 151.000000)" fillRule="nonzero" stroke="#BCBEC0" strokeWidth="2">
            <path d="M29,1 L101.65,1" id="Line" strokeDasharray="2,3"></path>
            <path d="M170,74.3 L170,112" id="Line-Copy-2" strokeDasharray="2,3"></path>
            <path d="M29.3,201 L141,201" id="Line-Copy" strokeDasharray="2,3"></path>
            <path d="M-1.8189894e-12,1 L23,1 C25.209139,1 27,2.790861 27,5 L27,197 C27,199.209139 25.209139,201 23,201 L-1.8189894e-12,201 L-1.8189894e-12,201" id="Container" transform="translate(13.500000, 101.000000) scale(-1, 1) translate(-13.500000, -101.000000)"></path>
            <path d="M143,114 L166,114 C168.209139,114 170,115.790861 170,118 L170,201 L170,201" id="Bottpm-Right" transform="translate(156.500000, 157.500000) scale(1, -1) translate(-156.500000, -157.500000) "></path>
            <path d="M104,1 L166,1 C168.209139,1 170,2.790861 170,5 L170,71.8237305 L170,71.8237305" id="Top-Right"></path>
        </g>
        <g id="stateValidation" transform="translate(15.000000, 274.000000)">
            <rect id="containerValidation" stroke="#BCBEC0" strokeWidth="2" fillRule="nonzero" fill="transparent" x="0" y="18" width="170" height="60" rx="4"></rect>
            <path id="pathValidation" fill="#0C87C6" fillRule="nonzero" stroke="#0C87C6" strokeWidth="0" d="M4,18 L166,18 C168.209139,18 170,19.790861 170,22 L170,78 L170,78 L0,78 L0,22 C-2.705415e-16,19.790861 1.790861,18 4,18 Z"></path>
            <text id="textValidation" fontFamily="din-2014, sans-serif" fontSize="21" fontWeight="500" linespacing="28" letterSpacing="0.21" fill="#0C87C6">
                <tspan x="40.275" y="54.5">Validation</tspan>
            </text>
            <g id="icon/validation" transform="translate(155.000000, 0.000000)">
                <rect id="boundsIcon" x="0" y="0" width="72" height="65"></rect>
                <g id="iconPath" strokeWidth="1" fillRule="evenodd" transform="translate(0.000000, 7.000000)">
                    <polygon id="Fill-1" fill="#FFFFFF" points="40.0449 16.6768 25.3609 1.9998 25.3609 6.0598 25.3609 10.9728 25.3609 16.6768"></polygon>
                    <g id="Group-19" transform="translate(0.000000, 0.983400)">
                        <path d="M49.459,32.3984 C49.459,26.9144 45.349,22.4024 40.045,21.7494 L40.045,21.6594 L40.045,15.6934 L25.359,1.0164 L1,1.0164 L1,55.0004 L40.045,55.0004 L40.045,43.0464 C45.349,42.3924 49.459,37.8784 49.459,32.3984" id="Fill-2" fill="#FFFFFF"></path>
                        <polyline id="Fill-4" fill="#FFFFFF" points="35.0938 32.7969 37.2398 35.1539 42.3668 29.2679"></polyline>
                        <path d="M30.2129,45.4336 L10.8319,45.4336" id="Fill-6" fill="#FFFFFF"></path>
                        <path d="M27.9824,36.1445 L10.8324,36.1445" id="Fill-8" fill="#FFFFFF"></path>
                        <path d="M28.6348,26.8535 L10.8318,26.8535" id="Fill-10" fill="#FFFFFF"></path>
                        <g id="Group-14">
                            <mask id="mask-21" fill="white">
                                <use href="#polygonIconValidation"></use>
                            </mask>
                            <g id="Clip-13"></g>
                            <path d="M28.9824,32.3984 C28.9824,27.0284 33.3514,22.6594 38.7204,22.6594 C44.0904,22.6594 48.4594,27.0284 48.4594,32.3984 C48.4594,37.7684 44.0904,42.1364 38.7204,42.1364 C33.3514,42.1364 28.9824,37.7684 28.9824,32.3984 L28.9824,32.3984 Z M26.3614,14.6934 L26.3614,3.4314 L37.6294,14.6934 L26.3614,14.6934 Z M50.4594,32.3984 C50.4594,26.7214 46.4074,21.9744 41.0454,20.8924 L41.0454,15.6934 C41.0454,15.6714 41.0334,15.6524 41.0324,15.6304 C41.0264,15.5424 41.0094,15.4574 40.9814,15.3734 C40.9704,15.3404 40.9614,15.3104 40.9474,15.2794 C40.8994,15.1744 40.8394,15.0754 40.7554,14.9904 C40.7534,14.9894 40.7534,14.9874 40.7524,14.9854 L37.0794,11.3154 L26.0684,0.3094 C25.9824,0.2234 25.8804,0.1624 25.7734,0.1134 C25.7424,0.0994 25.7114,0.0914 25.6794,0.0804 C25.5964,0.0524 25.5134,0.0354 25.4264,0.0294 C25.4034,0.0284 25.3824,0.0164 25.3594,0.0164 L1.0004,0.0164 C0.4474,0.0164 0.0004,0.4644 0.0004,1.0164 L0.0004,55.0004 C0.0004,55.5524 0.4474,56.0004 1.0004,56.0004 L40.0454,56.0004 C40.5974,56.0004 41.0454,55.5524 41.0454,55.0004 L41.0454,46.8084 C41.0454,46.2554 40.5974,45.8084 40.0454,45.8084 C39.4924,45.8084 39.0454,46.2554 39.0454,46.8084 L39.0454,54.0004 L2.0004,54.0004 L2.0004,2.0164 L24.3614,2.0164 L24.3614,15.6934 C24.3614,16.2454 24.8094,16.6934 25.3614,16.6934 L39.0454,16.6934 L39.0454,20.6754 C38.9364,20.6724 38.8304,20.6594 38.7204,20.6594 C34.6434,20.6594 31.0484,22.7514 28.9434,25.9164 C28.8444,25.8834 28.7444,25.8534 28.6344,25.8534 L10.8324,25.8534 C10.2794,25.8534 9.8324,26.3014 9.8324,26.8534 C9.8324,27.4054 10.2794,27.8534 10.8324,27.8534 L27.8994,27.8534 C27.3094,29.2524 26.9824,30.7884 26.9824,32.3984 C26.9824,33.3454 27.1074,34.2614 27.3204,35.1444 L10.8324,35.1444 C10.2794,35.1444 9.8324,35.5914 9.8324,36.1444 C9.8324,36.6974 10.2794,37.1444 10.8324,37.1444 L27.9824,37.1444 C27.9864,37.1444 27.9894,37.1424 27.9924,37.1424 C29.8194,41.2564 33.9374,44.1364 38.7204,44.1364 C45.1934,44.1364 50.4594,38.8714 50.4594,32.3984 L50.4594,32.3984 Z" id="Fill-12" fill="#0C87C6" mask="url(#mask-21)"></path>
                        </g>
                        <path d="M43.0239,28.5137 C42.6069,28.1497 41.9759,28.1947 41.6129,28.6107 L37.2239,33.6507 L35.8329,32.1237 C35.4619,31.7157 34.8299,31.6847 34.4199,32.0577 C34.0119,32.4297 33.9819,33.0617 34.3549,33.4697 L36.5009,35.8267 C36.6909,36.0357 36.9589,36.1547 37.2399,36.1547 L37.2519,36.1547 C37.5369,36.1517 37.8069,36.0267 37.9939,35.8117 L43.1209,29.9247 C43.4839,29.5077 43.4409,28.8757 43.0239,28.5137" id="Fill-15" fill="#0C87C6"></path>
                        <path d="M10.832,44.4336 C10.28,44.4336 9.832,44.8806 9.832,45.4336 C9.832,45.9866 10.28,46.4336 10.832,46.4336 L30.213,46.4336 C30.765,46.4336 31.213,45.9866 31.213,45.4336 C31.213,44.8806 30.765,44.4336 30.213,44.4336 L10.832,44.4336 Z" id="Fill-17" fill="#0C87C6"></path>
                    </g>
                </g>
            </g>
        </g>
        <g id="stateDataCurator" transform="translate(27.000000, 168.000000)">
            <rect id="containerDataCurator" fillOpacity="0.5" fill="#FFFFFF" fillRule="nonzero" x="0" y="0" width="110" height="30" rx="3"></rect>
            <path id="pathDataCurator" fill="#0C87C6" fillRule="nonzero" stroke="#0C87C6" strokeWidth="0" d="M3,0 L107,0 C108.656854,-3.04359188e-16 110,1.34314575 110,3 L110,30 L110,30 L0,30 L0,3 C-2.02906125e-16,1.34314575 1.34314575,3.04359188e-16 3,0 Z"></path>
            <text id="textDataCurator" fontFamily="Montserrat, sans-serif" fontSize="14" fontWeight="600" fill="#717272">
                <tspan x="9.29" y="20">Data Curator</tspan>
            </text>
        </g>
        <g id="flowPathSubmitData" transform="translate(-73.000000, 97.000000)">
            <g id="rawDataSubmitData" transform="translate(160.000000, 10.500000)">
                <g id="tooltipRawDataSubmitData" transform="translate(23.000000, 0.000000)">
                    <path id="tooltipPathRawDataSubmitData" d="M107.802669,1 C109.459524,1 110.802669,2.34314575 110.802669,4 L110.802669,38 C110.802669,39.6568542 109.459524,41 107.802669,41 L3.80266936,41 C2.14581511,41 0.802669364,39.6568542 0.802669364,38 L0.802669364,4 C0.802669364,2.34314575 2.14581511,1 3.80266936,1 L107.802669,1 Z M111.802669,13 L122.554594,20.1679497 C123.014123,20.4743022 123.138296,21.0951715 122.831944,21.5547002 C122.758709,21.6645525 122.664446,21.7588154 122.554594,21.8320503 L111.802669,29 L111.802669,13 Z" stroke="#0C87C6" strokeWidth="2" fill="#0C87C6" fillRule="nonzero" transform="translate(61.901335, 21.000000) scale(-1, 1) translate(-61.901335, -21.000000) "></path>
                    <text id="tooltipTextRawDataSubmitData" fontFamily="Montserrat, sans-serif" fontSize="14" fontWeight="600" fill="#FFFFFF">
                        <tspan x="33.021" y="26">Raw Data</tspan>
                    </text>
                </g>
                <rect id="boundsRawDataSubmitData" x="0" y="8.5" width="25" height="25"></rect>
                <g id="symbolRawDataSubmitData" transform="translate(7.000000, 15.500000)" fill="#0C87C6">
                    <path id="symbolPathRawDataSubmitData" d="M5.5,0 C2.463,0 0,2.462 0,5.5 C0,8.537 2.463,11 5.5,11 C8.537,11 11,8.537 11,5.5 C11,2.462 8.537,0 5.5,0"></path>
                </g>
            </g>
            <g id="metadataSubmitData" transform="translate(0.000000, 10.500000)">
                <g id="tooltipMetadataSubmitData">
                    <path id="tooltipPathMetadataSubmitData" d="M108,1 C109.656854,1 111,2.34314575 111,4 L111,38 C111,39.6568542 109.656854,41 108,41 L4,41 C2.34314575,41 1,39.6568542 1,38 L1,4 C1,2.34314575 2.34314575,1 4,1 L108,1 Z M112,13 L122.751925,20.1679497 C123.211453,20.4743022 123.335627,21.0951715 123.029275,21.5547002 C122.95604,21.6645525 122.861777,21.7588154 122.751925,21.8320503 L112,29 L112,13 Z" stroke="#0C87C6" strokeWidth="2" fill="#0C87C6" fillRule="nonzero"></path>
                    <text id="tooltipTextMetadataSubmitData" fontFamily="Montserrat, sans-serif" fontSize="14" fontWeight="600" fill="#FFFFFF">
                        <tspan x="21.469" y="26">Metadata</tspan>
                    </text>
                </g>
                <rect id="boundsMetadataSubmitData" x="122" y="9" width="24" height="24"></rect>
                <g id="symbolMetadataSubmitData" transform="translate(129.000000, 16.000000)" fill="#A0267A">
                    <polygon id="symbolPolygonMetadataSubmitData" points="0 10 10 10 10 0 0 0"></polygon>
                </g>
            </g>
            <text id="textSubmitData" fontFamily="Montserrat, sans-serif" fontSize="11" fontWeight="600" letter-spacing="0.1" fill="#0068A7">
                <tspan x="117.189" y="11">Submit Data</tspan>
            </text>
        </g>
        <g id="stateResearchData" transform="translate(15.000000, 0.000000)">
            <rect id="containerResearchData" stroke="#BCBEC0" strokeWidth="2" fillRule="nonzero" fill="transparent" x="0" y="18" width="170" height="60" rx="4"></rect>
            <path id="pathResearchData" fill="#0C87C6" fillRule="nonzero" stroke="#0C87C6" strokeWidth="0"  d="M4,18 L166,18 C168.209139,18 170,19.790861 170,22 L170,78 L170,78 L0,78 L0,22 C-2.705415e-16,19.790861 1.790861,18 4,18 Z"></path>
            <text id="textResearchData" fontFamily="din-2014, sans-serif" fontSize="21" fontWeight="500" linespacing="28" letterSpacing="0.21" fill="#0C87C6">
                <tspan x="20.22" y="54">Research Data</tspan>
            </text>
            <g id="icon/labs" transform="translate(155.000000, 0.000000)">
                <rect id="boundsIcon" x="0" y="0" width="72" height="65"></rect>
                <g id="iconPath" transform="translate(0.000000, 1.000000)">
                    <path d="M55.6045,32.7309 C55.2155,36.5959 58.0355,40.0429 61.9015,40.4299 C65.7665,40.8169 69.2115,37.9969 69.6005,34.1309 C69.9855,30.2679 67.1655,26.8209 63.3015,26.4349 C59.4365,26.0479 55.9895,28.8659 55.6045,32.7309 L55.6045,32.7309 Z M41.5375,7.3299 C41.1525,11.1949 43.9705,14.6419 47.8355,15.0289 C51.7005,15.4159 55.1485,12.5969 55.5325,8.7309 C55.9215,4.8659 53.1015,1.4209 49.2365,1.0349 C45.3715,0.6479 41.9235,3.4669 41.5375,7.3299 L41.5375,7.3299 Z M27.9645,43.5979 C27.9645,44.3439 28.5705,44.9479 29.3165,44.9479 C30.0605,44.9479 30.6665,44.3439 30.6665,43.5979 C30.6665,42.8519 30.0605,42.2489 29.3165,42.2489 C28.5705,42.2489 27.9645,42.8519 27.9645,43.5979 L27.9645,43.5979 Z M26.6195,33.4319 L21.4315,37.1959 L23.3535,39.8459 L28.5425,36.0829 L26.6195,33.4319 Z M7.0135,6.3909 L1.8225,10.1539 L5.6665,15.4539 L10.8575,11.6899 L7.0135,6.3909 Z M18.7345,39.1509 L29.3185,31.4749 L13.5525,9.7339 L2.9685,17.4099 L18.7345,39.1509 Z M7.3695,23.4849 C3.4965,26.4749 1.0005,31.1619 1.0005,36.4339 C1.0005,45.4609 8.3145,52.7799 17.3415,52.7799 L30.6665,52.7799 L31.2655,48.2819 L19.6325,48.2819 C11.7515,48.2819 5.3655,43.6589 5.3655,36.8049 C5.3655,34.3029 6.2165,31.9729 7.6795,30.0239 C7.6795,30.0239 9.7785,27.5749 10.9145,27.3659 L7.3695,23.4849 Z M10.7485,52.8659 L24.8925,52.8659 L29.4215,62.3659 L6.2165,62.3659 L10.7485,52.8659 Z" id="Fill-1" fill="#FFFFFF"></path>
                    <path d="M68.6055,34.0317 C68.2735,37.3297 65.3595,39.7667 62.0015,39.4347 C60.3975,39.2747 58.9515,38.4997 57.9315,37.2517 C56.9115,36.0047 56.4385,34.4337 56.5995,32.8297 C56.9075,29.7337 59.4845,27.3987 62.5925,27.3987 C62.7935,27.3987 62.9975,27.4087 63.2025,27.4297 C66.5115,27.7607 68.9355,30.7227 68.6055,34.0317 L68.6055,34.0317 Z M28.9645,43.5977 C28.9645,43.4417 29.0705,43.3137 29.2125,43.2687 L29.4205,43.9267 C29.3865,43.9367 29.3535,43.9477 29.3165,43.9477 C29.1225,43.9477 28.9645,43.7907 28.9645,43.5977 L28.9645,43.5977 Z M63.4015,25.4397 C58.9225,24.9967 55.0465,28.2427 54.6095,32.6317 C54.5445,33.2757 54.5655,33.9147 54.6525,34.5407 L31.0345,42.0067 C30.6045,41.5437 29.9965,41.2487 29.3165,41.2487 C28.0195,41.2487 26.9645,42.3027 26.9645,43.5977 C26.9645,44.8937 28.0195,45.9477 29.3165,45.9477 C30.5035,45.9477 31.4785,45.0587 31.6345,43.9137 L55.1645,36.4747 C55.4625,37.2037 55.8715,37.8907 56.3835,38.5177 C57.7415,40.1787 59.6665,41.2117 61.8015,41.4257 C62.0735,41.4527 62.3425,41.4657 62.6095,41.4657 L62.6105,41.4657 C66.7485,41.4657 70.1805,38.3557 70.5955,34.2297 C71.0345,29.8237 67.8075,25.8807 63.4015,25.4397 L63.4015,25.4397 Z M42.5325,7.4297 C42.8415,4.3337 45.4195,1.9997 48.5275,1.9997 C48.7285,1.9997 48.9325,2.0097 49.1375,2.0307 C50.7415,2.1907 52.1875,2.9657 53.2075,4.2137 C54.2265,5.4597 54.6985,7.0287 54.5375,8.6327 C54.2095,11.9297 51.2995,14.3737 47.9355,14.0337 C44.6265,13.7017 42.2025,10.7397 42.5325,7.4297 L42.5325,7.4297 Z M32.8795,38.1297 C33.0215,38.1987 33.1705,38.2307 33.3175,38.2307 C33.6885,38.2307 34.0435,38.0247 34.2165,37.6697 L45.0645,15.4487 C45.0905,15.3957 45.0915,15.3397 45.1065,15.2847 C45.9155,15.6687 46.7965,15.9297 47.7365,16.0247 C48.0075,16.0517 48.2775,16.0647 48.5445,16.0647 C52.6855,16.0647 56.1175,12.9547 56.5275,8.8317 C56.7425,6.6977 56.1135,4.6077 54.7555,2.9477 C53.3975,1.2857 51.4725,0.2537 49.3355,0.0397 C44.8585,-0.4003 40.9815,2.8427 40.5425,7.2307 C40.2645,10.0227 41.4605,12.6267 43.4935,14.2747 C43.4035,14.3567 43.3245,14.4547 43.2675,14.5717 L32.4195,36.7927 C32.1775,37.2887 32.3835,37.8867 32.8795,38.1297 L32.8795,38.1297 Z M29.7905,51.7797 L17.3415,51.7797 C8.8825,51.7797 2.0005,44.8957 2.0005,36.4337 C2.0005,31.9867 3.8955,27.8677 7.2025,24.9507 L8.9545,27.3667 C8.0555,28.0937 7.2315,29.0107 6.8795,29.4237 C5.2345,31.6157 4.3655,34.1677 4.3655,36.8047 C4.3655,43.9187 10.9285,49.2817 19.6325,49.2817 L30.1235,49.2817 L29.7905,51.7797 Z M7.8015,61.3657 L11.3785,53.8657 L24.2615,53.8657 L27.8375,61.3657 L7.8015,61.3657 Z M6.4165,16.1457 L11.4445,12.4997 C11.4455,12.4987 11.4465,12.4967 11.4485,12.4957 L13.3305,11.1307 L27.9215,31.2527 L26.0345,32.6217 C26.0335,32.6217 26.0325,32.6217 26.0315,32.6227 L23.1015,34.7487 L18.9575,37.7547 L4.3655,17.6327 L6.4165,16.1457 Z M3.2185,10.3767 L6.7915,7.7867 L9.4605,11.4677 L5.8885,14.0577 L3.2185,10.3767 Z M27.1465,35.8597 L23.5765,38.4497 L22.8285,37.4187 L25.5925,35.4127 L26.3975,34.8287 L27.1465,35.8597 Z M32.0185,47.6227 C31.8285,47.4057 31.5535,47.2817 31.2655,47.2817 L19.6325,47.2817 C11.9445,47.2817 6.3655,42.8757 6.3655,36.8047 C6.3655,34.6037 7.0965,32.4677 8.4385,30.6757 C8.9795,30.0447 9.6045,29.4297 10.1295,28.9877 L17.9245,39.7377 C18.0805,39.9527 18.3145,40.0967 18.5775,40.1377 C18.6295,40.1467 18.6825,40.1507 18.7345,40.1507 C18.9435,40.1507 19.1495,40.0857 19.3215,39.9607 L21.2085,38.5917 L22.5435,40.4327 C22.6995,40.6477 22.9345,40.7927 23.1965,40.8337 C23.2485,40.8427 23.3015,40.8457 23.3535,40.8457 C23.5635,40.8457 23.7695,40.7807 23.9405,40.6557 L29.1295,36.8917 C29.3445,36.7357 29.4885,36.5017 29.5305,36.2397 C29.5725,35.9777 29.5085,35.7097 29.3525,35.4947 L28.0165,33.6547 L29.9055,32.2847 C30.3525,31.9607 30.4525,31.3347 30.1275,30.8877 L14.3625,9.1477 C14.2065,8.9327 13.9725,8.7887 13.7095,8.7467 C13.4475,8.7047 13.1805,8.7687 12.9655,8.9247 L11.0795,10.2927 L7.8235,5.8037 C7.4985,5.3567 6.8735,5.2567 6.4265,5.5807 L1.2355,9.3447 C1.0205,9.5007 0.8765,9.7347 0.8345,9.9967 C0.7925,10.2587 0.8565,10.5267 1.0125,10.7407 L4.2695,15.2317 L2.3815,16.6007 C1.9345,16.9247 1.8345,17.5507 2.1595,17.9967 L6.0095,23.3067 C2.1785,26.6097 0.0005,31.3407 0.0005,36.4337 C0.0005,43.3937 4.1285,49.3927 10.0565,52.1527 C9.9725,52.2347 9.8975,52.3257 9.8455,52.4347 L5.3135,61.9347 C5.1665,62.2447 5.1885,62.6087 5.3715,62.8987 C5.5545,63.1897 5.8735,63.3657 6.2165,63.3657 L29.4215,63.3657 C29.7655,63.3657 30.0845,63.1897 30.2675,62.8987 C30.4505,62.6087 30.4725,62.2457 30.3245,61.9347 L26.4365,53.7797 L30.6665,53.7797 C31.1675,53.7797 31.5905,53.4087 31.6575,52.9117 L32.2565,48.4137 C32.2945,48.1287 32.2085,47.8407 32.0185,47.6227 L32.0185,47.6227 Z" id="Fill-3" fill="#0C87C6"></path>
                </g>
            </g>
        </g>
        <rect id="hoverOverlay" fillOpacity="0.6" fill="#FFFFFF" fillRule="nonzero" x="0" y="0" width="610" height="731"></rect>
    </g>
</svg>
