<svg width="168" height="168" viewBox="0 0 168 168" fill="none" xmlns="http://www.w3.org/2000/svg">
    <path fill-rule="evenodd" clip-rule="evenodd"
          d="M127.724 66.8023C119.129 66.8023 111.893 72.5294 109.651 80.3419H57.2579L91.363 60.4404C93.2382 61.617 95.4428 62.3235 97.8271 62.3235C104.525 62.3235 109.951 56.9377 109.951 50.2959C109.951 43.6524 104.525 38.2666 97.8271 38.2666C91.1291 38.2666 85.7006 43.6524 85.7006 50.2959C85.7006 50.8045 85.7892 51.2883 85.852 51.7797L47.8031 73.9825C45.22 71.8749 41.911 70.6104 38.3052 70.6104C30.0366 70.6104 23.3334 77.2599 23.3334 85.464C23.3334 93.663 30.0366 100.312 38.3052 100.312C41.911 100.312 45.22 99.048 47.8031 96.943L84.7433 118.499C84.7132 118.859 84.6349 119.206 84.6349 119.571C84.6349 126.215 90.0633 131.6 96.7614 131.6C103.459 131.6 108.884 126.215 108.884 119.571C108.884 112.93 103.459 107.542 96.7614 107.542C94.2231 107.542 91.8697 108.322 89.924 109.645L57.2553 90.5819H109.648C111.893 98.3926 119.129 104.122 127.724 104.122C138.114 104.122 146.533 95.768 146.533 85.464C146.533 75.1566 138.114 66.8023 127.724 66.8023"
          fill="#DAF0F6"/>
    <path fill-rule="evenodd" clip-rule="evenodd"
          d="M44.5534 107.184H27.2543C26.1206 107.184 25.2 106.284 25.2 105.174C25.2 104.065 26.1206 103.163 27.2543 103.163H44.5534C45.6871 103.163 46.6069 104.065 46.6069 105.174C46.6069 106.284 45.6871 107.184 44.5534 107.184ZM36.2812 121.979L40.7801 112.74H58.353L62.8536 121.979H36.2812ZM47.8057 88.7881L45.6264 87.242C45.6264 87.2412 45.6255 87.2395 45.6238 87.2387L38.2261 81.9857C38.2209 81.9815 38.2149 81.9799 38.2107 81.9765L36.0399 80.4363L56.1053 53.3514L58.2743 54.8917C58.2786 54.8942 58.282 54.8984 58.2854 54.9017L64.6547 59.4202L67.8711 61.7033L47.8057 88.7881ZM41.2216 89.7555L37.148 86.8635L37.4765 86.4213L41.5493 89.3124L41.2216 89.7555ZM65.4291 48.683L69.5053 51.5767L66.4362 55.7191L62.3599 52.8255L65.4291 48.683ZM75.5999 87.8024C75.5999 80.7051 72.5727 74.1037 67.243 69.3985L72.4008 62.4353C73.0664 61.5374 72.8628 60.2803 71.9438 59.6287L69.7611 58.0793L74.0359 52.3095C74.7007 51.4109 74.497 50.1537 73.5781 49.5022L66.1786 44.2492C65.2605 43.5976 63.9762 43.7977 63.3105 44.6956L59.035 50.4653L56.854 48.9167C56.4125 48.6035 55.8614 48.4745 55.3241 48.5591C54.7868 48.6428 54.305 48.9326 53.985 49.364L31.5094 79.7034C30.8445 80.6013 31.0482 81.8584 31.9671 82.51L34.1507 84.0611L32.6174 86.1306C31.9526 87.0302 32.1562 88.2873 33.0752 88.9389L40.4721 94.1902C40.8366 94.4481 41.2584 94.5729 41.676 94.5729C42.3125 94.5729 42.9389 94.2848 43.3402 93.7421L44.8743 91.6726L47.057 93.222C47.4095 93.4733 47.8331 93.6056 48.2634 93.6056C48.3713 93.6056 48.4782 93.5981 48.586 93.5805C49.1234 93.4959 49.6059 93.2069 49.9259 92.7756L64.8173 72.6732C69.0801 76.5962 71.4921 82.0016 71.4921 87.8024C71.4921 99.2698 61.9621 108.6 50.2485 108.6H31.2527C30.1181 108.6 29.1983 109.5 29.1983 110.61C29.1983 111.72 30.1181 112.62 31.2527 112.62H36.2889L31.174 123.123C30.8702 123.747 30.9138 124.479 31.2912 125.062C31.6668 125.645 32.3222 126 33.0272 126H66.1085C66.8135 126 67.4689 125.645 67.8445 125.062C68.2219 124.479 68.2655 123.747 67.9617 123.123L61.5676 109.999C69.8784 105.921 75.5999 97.506 75.5999 87.8024V87.8024Z"
          fill="#0C87C6"/>
</svg>
