<svg width="168" height="168" viewBox="0 0 168 168" fill="none" xmlns="http://www.w3.org/2000/svg">
    <path fill-rule="evenodd" clip-rule="evenodd"
          d="M129.23 73.2944C128.991 55.7688 114.636 41.0664 96.9437 41.0664C85.6768 41.0664 75.0933 47.1147 69.2512 55.8376C66.6777 54.1466 63.5983 53.153 60.2814 53.153C51.3217 53.153 44.0543 60.3619 44.0543 69.2628C44.0543 69.5674 44.0839 69.872 44.1041 70.1742C44.0839 70.5409 44.0543 70.9118 44.0543 71.2786C35.9758 75.1239 29.8667 84.2807 29.8667 93.7405C29.8667 106.869 40.6681 117.6 53.8858 117.6H125.111C137.407 117.6 147.467 107.607 147.467 95.3929C147.467 84.5753 139.576 75.2221 129.23 73.2944"
          fill="#DAF0F6"/>
    <path fill-rule="evenodd" clip-rule="evenodd"
          d="M89.1541 122.111L73.5869 106.797L76.6022 103.833L92.1652 119.147L89.1541 122.111ZM64.9478 98.9205V82.9411C64.9478 82.9145 64.9402 82.8895 64.9393 82.8637C64.9309 82.3885 64.8353 81.9207 64.6585 81.4787C64.6365 81.423 64.6103 81.3697 64.5858 81.3148C64.5088 81.1442 64.4192 80.9802 64.3168 80.8204C64.2864 80.7721 64.2584 80.723 64.2255 80.6764C64.0867 80.4783 63.9353 80.2869 63.7577 80.1129L54.9393 71.4387C54.8911 71.3921 54.8336 71.3588 54.7837 71.3138C54.6339 71.1807 54.4834 71.0467 54.3168 70.9385C54.2034 70.8644 54.0782 70.8128 53.959 70.7512C53.8448 70.6913 53.7357 70.6205 53.6156 70.5714C53.4617 70.509 53.2993 70.4724 53.1386 70.4291C53.0447 70.4041 52.955 70.365 52.8594 70.3467C52.5989 70.2959 52.3342 70.2693 52.0678 70.2693C52.0669 70.2693 52.0652 70.2693 52.0635 70.2693H37.436C35.1938 70.2693 33.3761 72.0579 33.3761 74.2643V98.9305C28.012 94.4935 24.5932 87.8492 24.5932 80.43C24.5932 67.1032 35.6125 56.2608 49.1573 56.2608C62.6996 56.2608 73.718 67.1032 73.718 80.43C73.718 87.8434 70.3052 94.4843 64.9478 98.9205ZM52.0686 82.9386V74.2643L60.8853 82.9386H52.0686ZM37.436 101.663V74.2643H48.0087V82.9386C48.0087 85.145 49.8263 86.9337 52.0686 86.9337H60.8879V101.656C57.3998 103.53 53.4024 104.596 49.1573 104.596C44.9156 104.596 40.9216 103.532 37.436 101.663ZM96.4721 117.734L78.0384 99.5955C77.2467 98.8164 75.9611 98.8164 75.1686 99.5946L73.334 101.398L70.7627 98.868C75.1271 93.9233 77.7779 87.478 77.7779 80.43C77.7779 64.9001 64.9385 52.2666 49.1573 52.2666C33.3744 52.2666 20.5333 64.9001 20.5333 80.43C20.5333 95.9583 33.3744 108.592 49.1573 108.592C56.318 108.592 62.8671 105.985 67.8912 101.694L70.4616 104.222L69.2809 105.383C68.8994 105.759 68.6854 106.267 68.6854 106.797C68.6854 107.327 68.8994 107.835 69.28 108.21L87.7187 126.348C88.1146 126.739 88.6348 126.933 89.1541 126.933C89.6734 126.933 90.1927 126.739 90.5894 126.348L96.4721 120.56C96.8527 120.185 97.0667 119.676 97.0667 119.147C97.0667 118.617 96.8527 118.108 96.4721 117.734V117.734Z"
          fill="#0C87C6"/>
</svg>
