<svg width="168" height="168" viewBox="0 0 168 168" fill="none" xmlns="http://www.w3.org/2000/svg">
    <path fill-rule="evenodd" clip-rule="evenodd"
          d="M11.2 66.6462V79.2288L22.3743 85.5231L33.5435 79.2288V66.6462L22.3743 60.3586L11.2 66.6462ZM146.659 59.0352V46.4525L135.489 40.165L124.315 46.4525V59.0352L135.489 65.3295L146.659 59.0352ZM160.533 82.9479V105.055L140.91 116.112L121.28 105.055V102.764L112.172 107.831V118.001L97.9699 126L83.766 118.001V107.828L69.4498 99.8693L60.4529 104.937L46.2465 96.94V80.9426L55.2684 75.8604V59.8722L46.2465 54.7893V38.7943L60.4529 30.7998L74.6525 38.7943V54.7893L65.6375 59.8697V75.8621L74.6525 80.9426V91.1195L88.9601 99.0786L97.9699 94.0015L106.975 99.0769L121.28 91.1169V89.6106L112.151 81.9743L97.9699 89.9638L78.3378 78.9077V56.7997L97.9699 45.7436L117.594 56.7997V73.2026L126.037 80.2657L140.91 71.8918L160.533 82.9479V82.9479Z"
          fill="#DAF0F6"/>
    <path fill-rule="evenodd" clip-rule="evenodd"
          d="M62.1323 101.86V90.3979L71.9724 84.6684V96.1308L62.1323 101.86ZM48.2281 84.6675L58.0716 90.397V101.858L48.2281 96.1308V84.6675ZM60.104 75.3883L69.9433 81.1212L60.1007 86.8506L50.2589 81.122L60.104 75.3883ZM75.9747 80.6775C75.9645 80.6323 75.9569 80.5871 75.9451 80.5427C75.9011 80.396 75.8453 80.251 75.7666 80.1119C75.7624 80.1034 75.7573 80.0957 75.7531 80.088C75.6719 79.9481 75.5746 79.8261 75.4689 79.7135C75.4393 79.682 75.4063 79.6547 75.3742 79.6248C75.282 79.5395 75.1847 79.4636 75.0807 79.3979C75.0587 79.3834 75.0409 79.3629 75.0181 79.3492L61.119 71.2515C60.4914 70.8847 59.7167 70.8847 59.0891 71.2507L45.1832 79.3484C45.1596 79.362 45.1435 79.3825 45.1206 79.3962C45.0158 79.4636 44.9177 79.5395 44.8255 79.6257C44.7942 79.6555 44.762 79.682 44.7324 79.7127C44.6233 79.8278 44.5218 79.9541 44.4398 80.0983C44.3569 80.2425 44.3002 80.3926 44.2554 80.5462C44.2427 80.588 44.2359 80.6298 44.2275 80.6724C44.1996 80.7953 44.1835 80.9173 44.1784 81.0401C44.1776 81.0674 44.1674 81.0939 44.1674 81.122V97.3123C44.1674 98.0443 44.5548 98.7208 45.1841 99.0859L59.0899 107.179C59.1094 107.19 59.1331 107.195 59.1534 107.206C59.2675 107.266 59.3877 107.317 59.5137 107.356C59.5509 107.367 59.5856 107.381 59.6236 107.39C59.7767 107.428 59.9357 107.453 60.1015 107.453C60.1024 107.453 60.1024 107.453 60.1024 107.453H60.104C60.1066 107.453 60.11 107.452 60.1125 107.452C60.2724 107.452 60.4271 107.428 60.5769 107.391C60.6217 107.38 60.6648 107.364 60.7096 107.349C60.8238 107.313 60.9329 107.267 61.0378 107.213C61.064 107.198 61.0936 107.193 61.119 107.179L75.0181 99.0851C75.6457 98.72 76.0331 98.0443 76.0331 97.3123V81.122C76.0331 81.093 76.0229 81.0657 76.0229 81.0375C76.0178 80.9173 76.0009 80.7978 75.9747 80.6775ZM100.353 132.257L84.7871 116.56L87.8016 113.521L103.365 129.219L100.353 132.257ZM35.794 89.5345C35.794 75.8745 46.8114 64.7619 60.3544 64.7619C73.8991 64.7619 84.9174 75.8745 84.9174 89.5345C84.9174 103.194 73.8991 114.305 60.3544 114.305C46.8114 114.305 35.794 103.194 35.794 89.5345ZM107.671 127.771L89.2386 109.179C88.4452 108.379 87.1604 108.38 86.3679 109.178L84.5334 111.027L81.963 108.433C86.3273 103.365 88.9781 96.7587 88.9781 89.5345C88.9781 73.6172 76.1371 60.667 60.3544 60.667C44.5734 60.667 31.7333 73.6172 31.7333 89.5345C31.7333 105.451 44.5734 118.4 60.3544 118.4C67.5158 118.4 74.0657 115.728 79.0906 111.329L81.661 113.922L80.4803 115.112C80.0997 115.495 79.8848 116.017 79.8848 116.56C79.8848 117.104 80.0988 117.624 80.4794 118.008L98.9179 136.601C99.3146 137.001 99.834 137.2 100.353 137.2C100.873 137.2 101.393 137.001 101.789 136.601L107.671 130.667C108.053 130.283 108.267 129.762 108.267 129.219C108.267 128.676 108.053 128.156 107.671 127.771V127.771Z"
          fill="#0C87C6"/>
</svg>
